<svg width="24" height="24" viewBox="0 0 24 24" fill="none" xmlns="http://www.w3.org/2000/svg">
<mask id="mask0_565_64" style="mask-type:alpha" maskUnits="userSpaceOnUse" x="0" y="0" width="24" height="24">
<rect width="24" height="24" fill="#D9D9D9"/>
</mask>
<g mask="url(#mask0_565_64)">
<g filter="url(#filter0_d_565_64)">
<path d="M6.72871 16.3716C7.45728 15.8144 8.27157 15.3751 9.17157 15.0537C10.0716 14.7323 11.0144 14.5716 12.0001 14.5716C12.9859 14.5716 13.9287 14.7323 14.8287 15.0537C15.7287 15.3751 16.543 15.8144 17.2716 16.3716C17.7716 15.7859 18.1609 15.1216 18.4394 14.3787C18.718 13.6359 18.8573 12.843 18.8573 12.0001C18.8573 10.1001 18.1894 8.48228 16.8537 7.14657C15.518 5.81085 13.9001 5.143 12.0001 5.143C10.1001 5.143 8.48228 5.81085 7.14657 7.14657C5.81085 8.48228 5.143 10.1001 5.143 12.0001C5.143 12.843 5.28228 13.6359 5.56085 14.3787C5.83943 15.1216 6.22871 15.7859 6.72871 16.3716ZM12.0001 12.8573C11.1573 12.8573 10.4466 12.568 9.868 11.9894C9.28942 11.4109 9.00014 10.7001 9.00014 9.85728C9.00014 9.01442 9.28942 8.30371 9.868 7.72514C10.4466 7.14657 11.1573 6.85728 12.0001 6.85728C12.843 6.85728 13.5537 7.14657 14.1323 7.72514C14.7109 8.30371 15.0001 9.01442 15.0001 9.85728C15.0001 10.7001 14.7109 11.4109 14.1323 11.9894C13.5537 12.568 12.843 12.8573 12.0001 12.8573ZM12.0001 20.5716C10.8144 20.5716 9.70014 20.3466 8.65728 19.8966C7.61442 19.4466 6.70728 18.8359 5.93585 18.0644C5.16443 17.293 4.55371 16.3859 4.10371 15.343C3.65371 14.3001 3.42871 13.1859 3.42871 12.0001C3.42871 10.8144 3.65371 9.70014 4.10371 8.65728C4.55371 7.61442 5.16443 6.70728 5.93585 5.93585C6.70728 5.16443 7.61442 4.55371 8.65728 4.10371C9.70014 3.65371 10.8144 3.42871 12.0001 3.42871C13.1859 3.42871 14.3001 3.65371 15.343 4.10371C16.3859 4.55371 17.293 5.16443 18.0644 5.93585C18.8359 6.70728 19.4466 7.61442 19.8966 8.65728C20.3466 9.70014 20.5716 10.8144 20.5716 12.0001C20.5716 13.1859 20.3466 14.3001 19.8966 15.343C19.4466 16.3859 18.8359 17.293 18.0644 18.0644C17.293 18.8359 16.3859 19.4466 15.343 19.8966C14.3001 20.3466 13.1859 20.5716 12.0001 20.5716Z" fill="#F1607D"/>
</g>
</g>
<defs>
<filter id="filter0_d_565_64" x="1.42871" y="1.42871" width="21.1431" height="21.1431" filterUnits="userSpaceOnUse" color-interpolation-filters="sRGB">
<feFlood flood-opacity="0" result="BackgroundImageFix"/>
<feColorMatrix in="SourceAlpha" type="matrix" values="0 0 0 0 0 0 0 0 0 0 0 0 0 0 0 0 0 0 127 0" result="hardAlpha"/>
<feOffset/>
<feGaussianBlur stdDeviation="1"/>
<feComposite in2="hardAlpha" operator="out"/>
<feColorMatrix type="matrix" values="0 0 0 0 0 0 0 0 0 0 0 0 0 0 0 0 0 0 0.15 0"/>
<feBlend mode="normal" in2="BackgroundImageFix" result="effect1_dropShadow_565_64"/>
<feBlend mode="normal" in="SourceGraphic" in2="effect1_dropShadow_565_64" result="shape"/>
</filter>
</defs>
</svg>
