<svg width="18" height="20" viewBox="0 0 18 20" fill="none" xmlns="http://www.w3.org/2000/svg">
<g filter="url(#filter0_d_565_51)">
<path d="M8.14307 14.2856H9.85735V9.99993H8.14307V14.2856ZM9.00021 8.28564C9.24307 8.28564 9.44664 8.2035 9.61092 8.03922C9.77521 7.87493 9.85735 7.67136 9.85735 7.4285C9.85735 7.18564 9.77521 6.98207 9.61092 6.81779C9.44664 6.6535 9.24307 6.57136 9.00021 6.57136C8.75735 6.57136 8.55378 6.6535 8.38949 6.81779C8.22521 6.98207 8.14307 7.18564 8.14307 7.4285C8.14307 7.67136 8.22521 7.87493 8.38949 8.03922C8.55378 8.2035 8.75735 8.28564 9.00021 8.28564ZM2.14307 17.7142V7.4285L9.00021 2.28564L15.8574 7.4285V17.7142H2.14307Z" fill="#821EB1"/>
</g>
<defs>
<filter id="filter0_d_565_51" x="0.143066" y="0.285645" width="17.7144" height="19.4287" filterUnits="userSpaceOnUse" color-interpolation-filters="sRGB">
<feFlood flood-opacity="0" result="BackgroundImageFix"/>
<feColorMatrix in="SourceAlpha" type="matrix" values="0 0 0 0 0 0 0 0 0 0 0 0 0 0 0 0 0 0 127 0" result="hardAlpha"/>
<feOffset/>
<feGaussianBlur stdDeviation="1"/>
<feComposite in2="hardAlpha" operator="out"/>
<feColorMatrix type="matrix" values="0 0 0 0 0 0 0 0 0 0 0 0 0 0 0 0 0 0 0.15 0"/>
<feBlend mode="normal" in2="BackgroundImageFix" result="effect1_dropShadow_565_51"/>
<feBlend mode="normal" in="SourceGraphic" in2="effect1_dropShadow_565_51" result="shape"/>
</filter>
</defs>
</svg>
