<svg height="200px" width="200px" version="1.1" id="Layer_1" xmlns="http://www.w3.org/2000/svg" xmlns:xlink="http://www.w3.org/1999/xlink" viewBox="0 0 512 512" xml:space="preserve" fill="#000000"><g id="SVGRepo_bgCarrier" stroke-width="0"></g><g id="SVGRepo_tracerCarrier" stroke-linecap="round" stroke-linejoin="round"></g><g id="SVGRepo_iconCarrier"> <g transform="translate(1 1)"> <polygon style="fill:#821EB1;" points="51.966,466.862 449.207,466.862 449.207,43.138 51.966,43.138 "></polygon> <polygon style="fill:#821EB1;" points="25.483,466.862 51.966,466.862 51.966,43.138 25.483,43.138 "></polygon> <polygon style="fill:#821EB1;" points="449.207,78.448 449.207,466.862 60.793,466.862 60.793,502.172 484.517,502.172 484.517,78.448 "></polygon> <polygon style="fill:#821EB1;" points="60.793,502.172 458.034,502.172 458.034,466.862 60.793,466.862 "></polygon> <path d="M449.207,475.69H25.483c-5.297,0-8.828-3.531-8.828-8.828V43.138c0-5.297,3.531-8.828,8.828-8.828h423.724 c5.297,0,8.828,3.531,8.828,8.828v423.724C458.034,472.159,454.503,475.69,449.207,475.69z M34.31,458.034h406.069V51.966H34.31 V458.034z"></path> <path d="M484.517,511H60.793c-5.297,0-8.828-3.531-8.828-8.828v-35.31c0-5.297,3.531-8.828,8.828-8.828h379.586V78.448 c0-5.297,3.531-8.828,8.828-8.828h35.31c5.297,0,8.828,3.531,8.828,8.828v423.724C493.345,507.469,489.814,511,484.517,511z M69.621,493.345H475.69V87.276h-17.655v379.586c0,5.297-3.531,8.828-8.828,8.828H69.621V493.345z"></path> <path d="M219.69,122.586c-19.421,0-35.31-15.89-35.31-35.31V34.31c0-19.421,15.89-35.31,35.31-35.31S255,14.89,255,34.31 c0,5.297-3.531,8.828-8.828,8.828s-8.828-3.531-8.828-8.828c0-9.71-7.945-17.655-17.655-17.655c-9.71,0-17.655,7.945-17.655,17.655 v52.966c0,9.71,7.945,17.655,17.655,17.655c9.71,0,17.655-7.945,17.655-17.655c0-5.297,3.531-8.828,8.828-8.828 S255,81.979,255,87.276C255,106.697,239.11,122.586,219.69,122.586z"></path> <path d="M360.931,193.207h-35.31c-5.297,0-8.828-3.531-8.828-8.828s3.531-8.828,8.828-8.828h35.31c5.297,0,8.828,3.531,8.828,8.828 S366.228,193.207,360.931,193.207z"></path> <path d="M290.31,193.207h-61.793c-5.297,0-8.828-3.531-8.828-8.828s3.531-8.828,8.828-8.828h61.793 c5.297,0,8.828,3.531,8.828,8.828S295.607,193.207,290.31,193.207z"></path> <path d="M193.207,193.207h-79.448c-5.297,0-8.828-3.531-8.828-8.828s3.531-8.828,8.828-8.828h79.448 c5.297,0,8.828,3.531,8.828,8.828S198.503,193.207,193.207,193.207z"></path> <path d="M360.931,246.172H290.31c-5.297,0-8.828-3.531-8.828-8.828s3.531-8.828,8.828-8.828h70.621 c5.297,0,8.828,3.531,8.828,8.828S366.228,246.172,360.931,246.172z"></path> <path d="M237.345,246.172h-61.793c-5.297,0-8.828-3.531-8.828-8.828s3.531-8.828,8.828-8.828h61.793 c5.297,0,8.828,3.531,8.828,8.828S242.641,246.172,237.345,246.172z"></path> <path d="M140.241,246.172h-26.483c-5.297,0-8.828-3.531-8.828-8.828s3.531-8.828,8.828-8.828h26.483 c5.297,0,8.828,3.531,8.828,8.828S145.538,246.172,140.241,246.172z"></path> <path d="M360.931,299.138h-26.483c-5.297,0-8.828-3.531-8.828-8.828s3.531-8.828,8.828-8.828h26.483 c5.297,0,8.828,3.531,8.828,8.828S366.228,299.138,360.931,299.138z"></path> <path d="M299.138,299.138h-88.276c-5.297,0-8.828-3.531-8.828-8.828s3.531-8.828,8.828-8.828h88.276 c5.297,0,8.828,3.531,8.828,8.828S304.434,299.138,299.138,299.138z"></path> <path d="M157.897,299.138h-44.138c-5.297,0-8.828-3.531-8.828-8.828s3.531-8.828,8.828-8.828h44.138 c5.297,0,8.828,3.531,8.828,8.828S163.193,299.138,157.897,299.138z"></path> <path d="M360.931,352.103h-97.103c-5.297,0-8.828-3.531-8.828-8.828s3.531-8.828,8.828-8.828h97.103 c5.297,0,8.828,3.531,8.828,8.828S366.228,352.103,360.931,352.103z"></path> <path d="M210.862,352.103h-35.31c-5.297,0-8.828-3.531-8.828-8.828s3.531-8.828,8.828-8.828h35.31c5.297,0,8.828,3.531,8.828,8.828 S216.159,352.103,210.862,352.103z"></path> <path d="M140.241,352.103h-26.483c-5.297,0-8.828-3.531-8.828-8.828s3.531-8.828,8.828-8.828h26.483 c5.297,0,8.828,3.531,8.828,8.828S145.538,352.103,140.241,352.103z"></path> </g> </g></svg>