<?xml version="1.0" encoding="utf-8"?>
<!-- Generator: Adobe Illustrator 27.5.0, SVG Export Plug-In . SVG Version: 6.00 Build 0)  -->
<svg version="1.1" xmlns="http://www.w3.org/2000/svg" xmlns:xlink="http://www.w3.org/1999/xlink" x="0px" y="0px"
	 viewBox="0 0 500 500" style="enable-background:new 0 0 500 500;" xml:space="preserve">
<g id="Floor">
	<ellipse id="Floor_12_" style="fill:#F5F5F5;" cx="244.986" cy="353.844" rx="229.998" ry="125.132"/>
</g>
<g id="Shadows">
	<polygon id="Shadow_46_" style="fill:#E6E6E6;" points="285.606,449.104 167.806,381.093 279.512,316.672 397.313,384.683 	"/>
	<path id="Shadow_45_" style="fill:#E6E6E6;" d="M52.773,379.932l23.466,13.503c2.364,1.365,6.196,1.365,8.56,0l155.926-90.175
		c2.364-1.365,2.364-3.577,0-4.942l-23.466-13.503c-2.364-1.365-6.196-1.365-8.56,0L52.773,374.99
		C50.409,376.354,50.409,378.567,52.773,379.932z"/>
	<path id="Shadow_43_" style="fill:#E6E6E6;" d="M342.19,324.044c-17.381-10.035-17.381-26.305,0-36.34
		c17.381-10.035,45.561-10.035,62.942,0c17.381,10.035,17.381,26.305,0,36.34C387.751,334.079,359.571,334.079,342.19,324.044z"/>
	<path id="Shadow_44_" style="fill:#E6E6E6;" d="M301.915,303.273c-5.862-3.385-5.862-8.872,0-12.257
		c5.863-3.385,15.367-3.385,21.23,0c5.862,3.385,5.862,8.872,0,12.257C317.282,306.658,307.777,306.658,301.915,303.273z"/>
</g>
<g id="Notebook">
	<g id="XMLID_62_">
		<g id="XMLID_97_">
			<g id="XMLID_165_">
				<path id="XMLID_168_" style="fill:#EBEBEB;" d="M67.804,380.259l-7.917-4.566l-0.089-0.059
					c-1.028-0.642-1.661-1.967-1.661-3.815v-243.43l160.6-92.725l8.036,4.636l-160.6,92.725v243.431
					C66.173,378.292,66.796,379.606,67.804,380.259z"/>
				<path id="XMLID_167_" style="fill:#F0F0F0;" d="M226.77,40.301v243.431c0,3.825-2.689,8.471-5.99,10.378L72.16,379.915
					c-1.552,0.9-2.965,1.038-4.023,0.534l-0.336-0.188c-1.008-0.652-1.631-1.967-1.631-3.806v-243.43L226.77,40.301z"/>
				<polygon id="XMLID_166_" style="fill:#FAFAFA;" points="218.734,35.665 226.77,40.301 66.17,133.025 58.134,128.39 				"/>
			</g>
			<g id="XMLID_158_">
				<path id="XMLID_164_" style="fill:#27DEBF;" d="M66.672,382.737l-1.848-1.058l-0.089-0.059
					c-1.028-0.642-1.661-1.967-1.661-3.815V132.595l164.615-95.041l1.967,1.127L65.041,133.725v245.206
					C65.041,380.77,65.664,382.084,66.672,382.737z"/>
				<path id="XMLID_163_" style="opacity:0.1;" d="M66.672,382.737l-1.848-1.058l-0.089-0.059c-1.028-0.642-1.661-1.967-1.661-3.815
					V132.595l164.615-95.041l1.967,1.127L65.041,133.725v245.206C65.041,380.77,65.664,382.084,66.672,382.737z"/>
				<path id="XMLID_162_" style="fill:#27DEBF;" d="M229.657,38.686v245.206c0,3.825-2.689,8.471-5.99,10.379L71.031,382.395
					c-1.552,0.9-2.965,1.038-4.023,0.534l-0.336-0.188c-1.008-0.652-1.631-1.967-1.631-3.806V133.73L229.657,38.686z"/>
				<path id="XMLID_161_" style="opacity:0.05;" d="M229.657,38.686v245.206c0,3.825-2.689,8.471-5.99,10.379L71.031,382.395
					c-1.552,0.9-2.965,1.038-4.023,0.534l-0.336-0.188c-1.008-0.652-1.631-1.967-1.631-3.806V133.73L229.657,38.686z"/>
				<polygon id="XMLID_160_" style="fill:#27DEBF;" points="227.689,37.555 229.657,38.686 65.041,133.73 63.074,132.595 				"/>
				<polygon id="XMLID_159_" style="opacity:0.4;fill:#FFFFFF;" points="227.689,37.555 229.657,38.686 65.041,133.73 
					63.074,132.595 				"/>
			</g>
			<g id="XMLID_152_">
				<path id="XMLID_157_" style="fill:#27DEBF;" d="M69.821,384.551l-1.848-1.058l-0.089-0.059c-1.028-0.642-1.66-1.967-1.66-3.815
					V134.41l164.615-95.041l1.967,1.127L68.19,135.539v245.206C68.19,382.584,68.813,383.899,69.821,384.551z"/>
				<path id="XMLID_156_" style="opacity:0.1;" d="M69.821,384.551l-1.848-1.058l-0.089-0.059c-1.028-0.642-1.66-1.967-1.66-3.815
					V134.41l164.615-95.041l1.967,1.127L68.19,135.539v245.206C68.19,382.584,68.813,383.899,69.821,384.551z"/>
				<path id="XMLID_155_" style="fill:#27DEBF;" d="M232.805,40.5v245.206c0,3.825-2.689,8.471-5.99,10.379L74.18,384.21
					c-1.552,0.9-2.965,1.038-4.023,0.534l-0.336-0.188c-1.008-0.652-1.631-1.967-1.631-3.806V135.544L232.805,40.5z"/>
				<polygon id="XMLID_154_" style="fill:#27DEBF;" points="230.838,39.369 232.805,40.5 68.19,135.544 66.223,134.41 				"/>
				<polygon id="XMLID_153_" style="opacity:0.4;fill:#FFFFFF;" points="230.838,39.369 232.805,40.5 68.19,135.544 66.223,134.41 
									"/>
			</g>
			<g id="XMLID_148_">
				<path id="XMLID_151_" style="fill:#EBEBEB;" d="M79.843,387.217l-7.917-4.567l-0.089-0.059c-1.028-0.642-1.66-1.967-1.66-3.815
					V135.346l160.6-92.725l8.036,4.636l-160.6,92.725v243.43C78.212,385.25,78.835,386.565,79.843,387.217z"/>
				<path id="XMLID_150_" style="fill:#F5F5F5;" d="M238.813,47.257v243.43c0,3.825-2.689,8.471-5.99,10.379l-148.62,85.806
					c-1.552,0.9-2.965,1.038-4.023,0.534l-0.336-0.188c-1.008-0.652-1.631-1.967-1.631-3.806v-243.43L238.813,47.257z"/>
				<polygon id="XMLID_149_" style="fill:#FAFAFA;" points="230.777,42.621 238.813,47.257 78.212,139.981 70.177,135.346 				"/>
			</g>
			<g id="XMLID_121_">
				<g id="XMLID_144_">
					<path id="XMLID_147_" style="fill:#E0E0E0;" d="M90.254,142.298c2.216-1.282,4.013-0.244,4.013,2.317
						c0,2.561-1.797,5.676-4.013,6.956c-2.217,1.28-4.013,0.242-4.013-2.317S88.037,143.58,90.254,142.298z"/>
					<path id="XMLID_145_" style="fill:#455A64;" d="M78.954,110.269c-4.369-2.521-8.56-2.886-11.792-1.018
						c-3.232,1.858-5.012,5.674-5.012,10.725c0,1.838,0.247,3.756,0.702,5.693l2.679-1.552c-0.277-1.403-0.415-2.797-0.415-4.141
						c0-3.954,1.255-6.85,3.529-8.164c2.273-1.315,5.407-0.949,8.827,1.028c7.631,4.399,13.838,15.153,13.838,23.97
						c0,2.204-0.395,4.082-1.127,5.535c-0.593,1.147-1.404,2.036-2.402,2.619c-0.079,0.049-0.158,0.089-0.237,0.129
						c-0.672,1.087-1.137,2.323-1.265,3.489c1.058-0.168,2.066-0.524,2.985-1.048c1.927-1.117,3.341-2.916,4.161-5.268
						c0.563-1.582,0.85-3.42,0.85-5.456C94.274,127.053,87.405,115.142,78.954,110.269z"/>
				</g>
				<g id="XMLID_141_">
					<path id="XMLID_143_" style="fill:#E0E0E0;" d="M109.755,131.039c2.216-1.282,4.013-0.244,4.013,2.317
						c0,2.561-1.797,5.676-4.013,6.956c-2.217,1.28-4.013,0.243-4.013-2.317S107.538,132.321,109.755,131.039z"/>
					<path id="XMLID_142_" style="fill:#455A64;" d="M98.455,99.01c-4.369-2.521-8.56-2.886-11.792-1.018
						c-3.232,1.858-5.011,5.674-5.011,10.725c0,1.839,0.247,3.756,0.702,5.693l2.679-1.552c-0.277-1.403-0.415-2.797-0.415-4.141
						c0-3.954,1.255-6.85,3.529-8.164c2.273-1.315,5.407-0.949,8.827,1.028c7.631,4.399,13.838,15.153,13.838,23.97
						c0,2.204-0.387,4.086-1.127,5.535c-0.587,1.15-1.412,2.022-2.402,2.619c-0.08,0.048-0.158,0.089-0.237,0.129
						c-0.672,1.087-1.137,2.323-1.265,3.489c1.058-0.168,2.068-0.52,2.985-1.048c1.932-1.11,3.333-2.919,4.161-5.268
						c0.558-1.583,0.85-3.42,0.85-5.456C113.775,115.793,106.906,103.883,98.455,99.01z"/>
				</g>
				<g id="XMLID_138_">
					<path id="XMLID_140_" style="fill:#E0E0E0;" d="M129.256,119.78c2.217-1.282,4.013-0.244,4.013,2.317s-1.797,5.676-4.013,6.956
						c-2.216,1.28-4.013,0.242-4.013-2.317C125.243,124.175,127.039,121.061,129.256,119.78z"/>
					<path id="XMLID_139_" style="fill:#455A64;" d="M117.956,87.75c-4.369-2.521-8.56-2.886-11.792-1.018
						c-3.232,1.858-5.011,5.674-5.011,10.724c0,1.839,0.247,3.756,0.702,5.693l2.679-1.552c-0.277-1.403-0.415-2.797-0.415-4.141
						c0-3.954,1.255-6.85,3.529-8.164c2.273-1.315,5.407-0.949,8.827,1.028c7.631,4.398,13.838,15.153,13.838,23.969
						c0,2.204-0.387,4.086-1.127,5.535c-0.587,1.15-1.412,2.022-2.402,2.619c-0.08,0.048-0.158,0.089-0.237,0.129
						c-0.672,1.087-1.137,2.323-1.265,3.489c1.058-0.168,2.068-0.521,2.985-1.048c1.931-1.11,3.333-2.919,4.161-5.268
						c0.558-1.583,0.85-3.42,0.85-5.456C133.277,104.534,126.407,92.623,117.956,87.75z"/>
				</g>
				<g id="XMLID_135_">
					<path id="XMLID_137_" style="fill:#E0E0E0;" d="M148.757,108.52c2.216-1.282,4.013-0.244,4.013,2.317
						c0,2.562-1.797,5.676-4.013,6.956c-2.217,1.28-4.013,0.243-4.013-2.317C144.744,112.916,146.54,109.802,148.757,108.52z"/>
					<path id="XMLID_136_" style="fill:#455A64;" d="M137.457,76.491c-4.369-2.521-8.56-2.886-11.792-1.018
						c-3.232,1.858-5.011,5.674-5.011,10.724c0,1.839,0.247,3.756,0.702,5.693l2.679-1.552c-0.277-1.404-0.415-2.797-0.415-4.142
						c0-3.954,1.255-6.85,3.529-8.164c2.273-1.315,5.407-0.949,8.827,1.028c7.631,4.398,13.838,15.153,13.838,23.969
						c0,2.204-0.387,4.086-1.127,5.535c-0.587,1.15-1.412,2.021-2.402,2.619c-0.08,0.048-0.158,0.089-0.237,0.129
						c-0.672,1.087-1.137,2.323-1.265,3.489c1.058-0.168,2.068-0.521,2.985-1.048c1.931-1.11,3.333-2.919,4.161-5.268
						c0.558-1.583,0.85-3.42,0.85-5.456C152.778,93.274,145.908,81.364,137.457,76.491z"/>
				</g>
				<g id="XMLID_132_">
					<path id="XMLID_134_" style="fill:#E0E0E0;" d="M168.258,97.261c2.216-1.282,4.013-0.244,4.013,2.317
						c0,2.562-1.797,5.676-4.013,6.956c-2.217,1.28-4.013,0.242-4.013-2.317C164.245,101.657,166.042,98.542,168.258,97.261z"/>
					<path id="XMLID_133_" style="fill:#455A64;" d="M156.958,65.231c-4.369-2.521-8.56-2.886-11.792-1.018
						c-3.232,1.858-5.011,5.674-5.011,10.725c0,1.839,0.247,3.756,0.702,5.693l2.679-1.552c-0.277-1.404-0.415-2.797-0.415-4.142
						c0-3.954,1.255-6.85,3.529-8.164c2.273-1.315,5.407-0.949,8.827,1.028c7.631,4.398,13.838,15.153,13.838,23.969
						c0,2.204-0.387,4.086-1.127,5.535c-0.587,1.15-1.412,2.021-2.402,2.619c-0.08,0.048-0.158,0.089-0.237,0.128
						c-0.672,1.087-1.137,2.323-1.265,3.489c1.058-0.168,2.068-0.521,2.985-1.048c1.931-1.11,3.333-2.919,4.161-5.268
						c0.558-1.583,0.85-3.42,0.85-5.456C172.279,82.015,165.409,70.104,156.958,65.231z"/>
				</g>
				<g id="XMLID_129_">
					<path id="XMLID_131_" style="fill:#E0E0E0;" d="M187.759,86.001c2.217-1.282,4.013-0.244,4.013,2.317s-1.797,5.676-4.013,6.956
						c-2.216,1.28-4.013,0.242-4.013-2.317C183.746,90.397,185.543,87.283,187.759,86.001z"/>
					<path id="XMLID_130_" style="fill:#455A64;" d="M176.459,53.972c-4.369-2.521-8.56-2.886-11.792-1.018
						c-3.232,1.858-5.011,5.674-5.011,10.725c0,1.838,0.247,3.756,0.702,5.693l2.679-1.552c-0.277-1.404-0.415-2.797-0.415-4.141
						c0-3.954,1.255-6.85,3.529-8.165c2.273-1.315,5.407-0.949,8.827,1.028c7.63,4.399,13.838,15.153,13.838,23.97
						c0,2.204-0.387,4.086-1.127,5.535c-0.587,1.15-1.412,2.021-2.402,2.619c-0.08,0.048-0.158,0.089-0.237,0.128
						c-0.672,1.087-1.137,2.323-1.265,3.489c1.058-0.168,2.068-0.521,2.985-1.048c1.932-1.11,3.333-2.918,4.161-5.268
						c0.558-1.583,0.85-3.42,0.85-5.456C191.78,70.755,184.91,58.845,176.459,53.972z"/>
				</g>
				<g id="XMLID_126_">
					<path id="XMLID_128_" style="fill:#E0E0E0;" d="M207.26,74.742c2.217-1.282,4.013-0.244,4.013,2.317
						c0,2.562-1.797,5.676-4.013,6.955c-2.217,1.28-4.013,0.243-4.013-2.317C203.247,79.138,205.044,76.023,207.26,74.742z"/>
					<path id="XMLID_127_" style="fill:#455A64;" d="M195.96,42.712c-4.369-2.521-8.56-2.886-11.792-1.018
						c-3.232,1.858-5.011,5.674-5.011,10.725c0,1.838,0.247,3.756,0.702,5.693l2.679-1.552c-0.277-1.404-0.415-2.797-0.415-4.141
						c0-3.954,1.255-6.85,3.529-8.164c2.273-1.315,5.407-0.949,8.827,1.028c7.631,4.399,13.838,15.153,13.838,23.97
						c0,2.204-0.387,4.086-1.127,5.535c-0.587,1.15-1.412,2.022-2.402,2.619c-0.08,0.048-0.158,0.089-0.237,0.129
						c-0.672,1.087-1.137,2.323-1.265,3.489c1.058-0.168,2.068-0.521,2.985-1.048c1.931-1.11,3.333-2.918,4.161-5.268
						c0.558-1.584,0.85-3.42,0.85-5.456C211.281,59.496,204.411,47.585,195.96,42.712z"/>
				</g>
				<g id="XMLID_122_">
					<path id="XMLID_125_" style="fill:#E0E0E0;" d="M226.761,63.482c2.217-1.282,4.013-0.244,4.013,2.317
						c0,2.562-1.797,5.676-4.013,6.955c-2.217,1.28-4.013,0.243-4.013-2.317C222.748,67.878,224.545,64.764,226.761,63.482z"/>
					<path id="XMLID_123_" style="fill:#455A64;" d="M215.461,31.453c-4.369-2.521-8.56-2.886-11.792-1.018
						c-3.232,1.858-5.011,5.674-5.011,10.724c0,1.839,0.247,3.756,0.702,5.693l2.679-1.552c-0.277-1.403-0.415-2.797-0.415-4.141
						c0-3.954,1.255-6.85,3.529-8.164c2.273-1.315,5.407-0.949,8.827,1.028c7.631,4.398,13.838,15.153,13.838,23.969
						c0,2.204-0.395,4.082-1.127,5.535c-0.593,1.147-1.403,2.036-2.402,2.619c-0.079,0.049-0.158,0.089-0.237,0.129
						c-0.672,1.087-1.137,2.323-1.265,3.489c1.058-0.168,2.066-0.524,2.985-1.048c1.927-1.117,3.341-2.916,4.161-5.268
						c0.564-1.582,0.85-3.42,0.85-5.456C230.782,48.236,223.912,36.326,215.461,31.453z"/>
				</g>
			</g>
			<g id="XMLID_118_" style="opacity:0.3;">
				<path id="XMLID_120_" style="fill:none;stroke:#27DEBF;stroke-miterlimit:10;" d="M90.521,160.688l135.974-78.511
					c2.364-1.365,4.281-0.258,4.282,2.471l0.003,8.663c0.001,2.729-1.914,6.049-4.278,7.413L90.518,179.234
					c-2.364,1.365-4.28,0.258-4.279-2.471l0.001-8.661C86.24,165.372,88.157,162.053,90.521,160.688z"/>
				
					<line id="XMLID_119_" style="fill:none;stroke:#27DEBF;stroke-miterlimit:10;" x1="230.775" y1="88.979" x2="86.238" y2="172.432"/>
			</g>
			<g id="XMLID_98_" style="opacity:0.3;">
				<path id="XMLID_117_" style="fill:none;stroke:#27DEBF;stroke-miterlimit:10;" d="M90.52,188.507l135.975-78.506
					c2.364-1.365,4.28-0.258,4.28,2.471v166.265c0,2.73-1.916,6.049-4.28,7.414L90.52,364.663c-2.364,1.365-4.28,0.258-4.28-2.471
					l0-166.272C86.24,193.191,88.156,189.872,90.52,188.507z"/>
				
					<line id="XMLID_116_" style="fill:none;stroke:#27DEBF;stroke-miterlimit:10;" x1="230.775" y1="116.796" x2="86.241" y2="200.251"/>
				
					<line id="XMLID_115_" style="fill:none;stroke:#27DEBF;stroke-miterlimit:10;" x1="230.775" y1="126.067" x2="86.241" y2="209.522"/>
				
					<line id="XMLID_114_" style="fill:none;stroke:#27DEBF;stroke-miterlimit:10;" x1="230.775" y1="135.339" x2="86.241" y2="218.794"/>
				
					<line id="XMLID_113_" style="fill:none;stroke:#27DEBF;stroke-miterlimit:10;" x1="230.775" y1="144.61" x2="86.241" y2="228.065"/>
				
					<line id="XMLID_112_" style="fill:none;stroke:#27DEBF;stroke-miterlimit:10;" x1="230.775" y1="153.881" x2="86.241" y2="237.337"/>
				
					<line id="XMLID_111_" style="fill:none;stroke:#27DEBF;stroke-miterlimit:10;" x1="230.775" y1="163.153" x2="86.241" y2="246.608"/>
				
					<line id="XMLID_110_" style="fill:none;stroke:#27DEBF;stroke-miterlimit:10;" x1="230.775" y1="172.424" x2="86.241" y2="255.879"/>
				
					<line id="XMLID_109_" style="fill:none;stroke:#27DEBF;stroke-miterlimit:10;" x1="230.775" y1="181.696" x2="86.241" y2="265.151"/>
				
					<line id="XMLID_108_" style="fill:none;stroke:#27DEBF;stroke-miterlimit:10;" x1="230.775" y1="190.967" x2="86.241" y2="274.422"/>
				
					<line id="XMLID_107_" style="fill:none;stroke:#27DEBF;stroke-miterlimit:10;" x1="230.775" y1="200.238" x2="86.241" y2="283.694"/>
				
					<line id="XMLID_106_" style="fill:none;stroke:#27DEBF;stroke-miterlimit:10;" x1="230.775" y1="209.51" x2="86.241" y2="292.965"/>
				
					<line id="XMLID_105_" style="fill:none;stroke:#27DEBF;stroke-miterlimit:10;" x1="230.775" y1="218.781" x2="86.241" y2="302.236"/>
				
					<line id="XMLID_104_" style="fill:none;stroke:#27DEBF;stroke-miterlimit:10;" x1="230.775" y1="228.053" x2="86.241" y2="311.508"/>
				
					<line id="XMLID_103_" style="fill:none;stroke:#27DEBF;stroke-miterlimit:10;" x1="230.775" y1="237.324" x2="86.241" y2="320.779"/>
				
					<line id="XMLID_102_" style="fill:none;stroke:#27DEBF;stroke-miterlimit:10;" x1="230.775" y1="246.596" x2="86.241" y2="330.051"/>
				
					<line id="XMLID_101_" style="fill:none;stroke:#27DEBF;stroke-miterlimit:10;" x1="230.775" y1="255.867" x2="86.241" y2="339.322"/>
				
					<line id="XMLID_100_" style="fill:none;stroke:#27DEBF;stroke-miterlimit:10;" x1="230.775" y1="265.138" x2="86.241" y2="348.594"/>
				
					<line id="XMLID_99_" style="fill:none;stroke:#27DEBF;stroke-miterlimit:10;" x1="230.775" y1="274.41" x2="86.241" y2="357.865"/>
			</g>
		</g>
		<g id="XMLID_63_">
			<g id="XMLID_81_">
				<path id="XMLID_95_" style="fill:#455A64;" d="M92.285,199.275c-0.086-4.684-0.086-8.41-0.017-9.113
					c0.086-0.736,0.224-1.157,0.395-1.348c0-0.023,0.035-0.042,0.069-0.063c0.172-0.1,0.36,0.136,0.754,1.074
					c0.241,0.478,0.636,1.302,0.858,1.837c0.274,0.458,0.84,1.709,1.287,2.686c0.823,1.812,1.458,3.091,1.818,3.73l0.206,0.316
					v-1.533c0-0.846-0.034-2.792-0.086-4.294c-0.034-1.512-0.069-3.527-0.069-4.487c0-1.944,0.017-2.045,0.326-2.224
					c0.223-0.128,0.36-0.094,0.411,0.151c0.035,0.118,0.086,1.277,0.121,2.583c0.034,1.307,0.051,3.332,0.085,4.432
					c0.086,3.334,0.103,7.166,0,7.5c-0.12,0.549-0.428,0.842-0.669,0.637c-0.29-0.313-0.891-1.475-2.058-3.979
					c-0.343-0.763-0.822-1.79-1.097-2.27l-0.926-1.89c-0.377-0.765-0.481-0.957-0.514-0.846c-0.051,0.212-0.016,6.344,0.068,8.786
					c0.069,1.996,0.034,2.656-0.154,2.971c-0.154,0.271-0.325,0.371-0.446,0.257C92.422,203.975,92.354,203.123,92.285,199.275z"/>
				<path id="XMLID_92_" style="fill:#455A64;" d="M100.31,197.317c-0.103-0.352-0.121-0.57-0.121-1.508
					c0-1.258,0.069-1.8,0.36-2.609c0.206-0.598,0.72-1.559,1.201-2.156c0.497-0.607,0.943-0.932,1.663-0.892
					c0.721,0.064,1.252,0.626,1.407,1.361c0.137,0.539,0.154,2.128,0.068,2.772c-0.24,1.534-0.892,2.893-1.835,3.735
					c-0.395,0.365-0.737,0.563-1.08,0.624C101.166,198.812,100.566,198.335,100.31,197.317z M104.151,193.202
					c0-0.527-0.016-0.676-0.154-0.986c-0.188-0.486-0.497-0.856-0.754-0.914c-0.137-0.035-0.292,0.031-0.618,0.22
					c-0.548,0.317-0.772,0.582-1.115,1.398c-0.497,1.156-0.634,1.967-0.481,2.952c0.121,0.732,0.275,1.168,0.498,1.452
					c0.378,0.422,0.789,0.322,1.526-0.356C103.671,196.405,104.151,194.756,104.151,193.202z"/>
				<path id="XMLID_90_" style="fill:#455A64;" d="M107.116,190.987l-0.035-2.839l-0.137,0.126
					c-0.429,0.385-0.754,0.573-0.977,0.587c-0.309,0.017-0.463-0.121-0.395-0.344c0.137-0.4,0.309-0.589,0.875-0.984
					c0.291-0.191,0.566-0.396,0.6-0.461c0.034-0.042,0.051-0.441,0.051-1.036c0-1.555,0.103-4.107,0.172-4.42
					c0.052-0.191,0.103-0.312,0.189-0.361c0.069-0.04,0.137-0.01,0.222,0.077c0.189,0.166,0.241,0.753,0.31,3.16l0.069,1.79
					c0.016,0.035,0.223-0.038,0.531-0.193c0.567-0.281,0.737-0.266,0.823,0.073c0.035,0.162,0.035,0.232-0.068,0.405
					c-0.103,0.174-0.207,0.257-0.652,0.514c-0.292,0.191-0.549,0.363-0.584,0.405c-0.153,0.249-0.206,4.577-0.069,5.87
					c0.018,0.242,0.052,0.748,0.087,1.094c0.016,0.585,0.016,0.654-0.087,0.873c-0.119,0.252-0.428,0.453-0.582,0.381
					C107.22,195.569,107.151,194.671,107.116,190.987z"/>
				<path id="XMLID_87_" style="fill:#455A64;" d="M110.186,191.135c-0.137-2.002,0.532-4.354,1.663-5.877
					c0.43-0.568,1.15-1.234,1.733-1.182c0.515,0.068,0.875,0.614,0.772,1.223c-0.138,0.972-1.132,2.734-2.368,4.202
					c-0.738,0.883-0.856,1.112-0.823,1.435c0.085,0.545,0.411,0.974,0.72,0.933c0.651-0.079,1.938-1.279,2.521-2.301
					c0.155-0.295,0.206-0.348,0.377-0.424c0.206-0.074,0.291-0.009,0.291,0.152c0,0.183-0.565,1.218-0.977,1.776
					c-0.892,1.247-1.526,1.773-2.212,1.894C110.804,193.135,110.307,192.575,110.186,191.135z M113.188,186.499
					c0.222-0.45,0.239-0.528,0.239-0.825c0-0.252-0.017-0.333-0.12-0.365c-0.069-0.029-0.155-0.003-0.258,0.057
					c-0.206,0.119-0.48,0.369-0.703,0.68c-0.635,0.824-1.338,2.786-1.201,3.278c0.034,0.14,0.017,0.15,0.291-0.146
					C111.901,188.682,112.776,187.354,113.188,186.499z"/>
				<path id="XMLID_85_" style="fill:#455A64;" d="M116.735,189.71c-0.429-0.096-0.549-0.255-0.532-0.631
					c0.018-0.262,0.035-0.294,0.206-0.415c0.137-0.102,0.344-0.13,0.686-0.123c0.6,0.042,0.96-0.051,1.51-0.391
					c0.549-0.363,0.634-0.527,0.668-1.187c0.035-0.408,0.018-0.467-0.153-0.71c-0.223-0.329-0.583-0.67-1.15-1.051
					c-0.514-0.345-0.685-0.543-0.823-1.011c-0.274-0.963-0.154-1.741,0.378-2.483c0.102-0.151,0.239-0.275,0.411-0.374
					c0.634-0.366,1.629-0.323,1.937,0.23c0.12,0.228,0.12,0.251,0.035,0.484c-0.12,0.366-0.377,0.447-0.874,0.208
					c-0.189-0.073-0.978-0.259-1.029,0.595c-0.035,0.729,0.189,1.012,1.029,1.441c0.994,0.5,1.492,1.858,1.166,3.076
					c-0.274,0.957-1.064,1.803-2.006,2.187C117.696,189.749,117.113,189.811,116.735,189.71z"/>
				<path id="XMLID_82_" style="fill:#455A64;" d="M121.725,181.386c0-0.321,0.155-0.684,0.292-0.991
					c0.154-0.363,0.48-0.643,0.651-0.445c0.189,0.211,0.258,0.652,0.103,1.084c-0.153,0.363-0.462,0.496-0.685,0.602
					C121.914,181.712,121.759,181.573,121.725,181.386z M121.725,186.851c0-0.319,0.155-0.683,0.292-0.99
					c0.154-0.365,0.48-0.643,0.651-0.445c0.189,0.21,0.258,0.652,0.103,1.084c-0.153,0.363-0.462,0.495-0.685,0.6
					C121.914,187.176,121.759,187.038,121.725,186.851z"/>
			</g>
			<g id="XMLID_77_">
				<path id="XMLID_80_" style="fill:#455A64;" d="M165.256,188.86c-0.04-0.214-0.362-0.152-0.485-0.095
					c-1.04,0.487-1.804,1.44-2.558,2.291c-0.29,0.339-0.581,0.678-0.874,1.015c-0.758,0.814-1.219,0.881-1.382,0.201
					c-0.039,0-0.272-0.221-0.362-0.223c-2.057-0.032-2.852,1.801-4.245,2.971c-0.489-1.734-2.214-0.093-2.993,1.003
					c-1.595,2.246-4.909,2.904-6.756,5.032c0.005-0.678-0.149-1.339-0.82-1.351c-0.007-0.625-0.156-1.242-0.479-1.605
					c-0.073-0.081-0.202-0.102-0.304-0.08c-1.599,0.344-2.531,2.498-3.074,3.971c0.111-1.933,0.204-3.867,0.221-5.801
					c0.003-0.366-0.662-0.234-0.674,0.09c-0.113,3.123-1.3,5.381-3.107,7.84c-0.458,0.623-0.977,1.256-1.536,1.781
					c-0.81,0.76-1.519,0.853-2.495,1.279c-0.518,0.226-0.462,0.113-0.982,0.496c-0.407,0.3-0.582,0.49-0.873,0.626
					c-0.162,0.076-0.438-0.04-0.663,0.083c-0.714,0.391-1.155,1.126-1.617,1.789c-0.603-0.483-0.968-0.421-1.688,0.125
					c-0.521,0.395-0.963,1.186-1.495,1.499c-1.296,0.765-0.569-0.132-1.233-0.839c-0.868-0.922-1.817-0.066-2.559,0.562
					c-0.969,0.821-1.658,1.728-2.091,2.777c-0.187-0.867-0.6-1.595-1.506-1.449c-1.345,0.217-2.187,2.695-2.71,3.641
					c-0.744,1.344-1.248,2.379-2.576,3.292c-0.614,0.422-1.28,0.778-1.979,0.903c-0.215,0.038-0.324-0.151-0.567-0.057
					c-0.432,0.166-0.632,0.415-1.021,0.669c-0.699,0.456,0.265,0.802-1.094,0.405c-0.881-0.258-0.782-0.586-1.185-1.269
					c-0.08-0.137-0.307-0.112-0.424-0.058c-0.651,0.299-1.006,0.869-1.432,1.427c-0.564,0.738-1.882,3.25-2.867,3.32
					c-1.656,0.116-1.688-4.081-1.718-5.061c-0.061-2.002,0.183-4.019,0.259-6.019c0.008-0.221-0.469-0.221-0.507-0.021
					c-0.5,2.681-1.118,5.445-2.008,8.029c-0.857,2.492-2.188,4.817-2.31,7.497c-0.007,0.157,0.329,0.226,0.34,0.073
					c0.199-2.783,1.659-5.265,2.551-7.868c0.46-1.34,0.839-2.736,1.173-4.14c-0.089,1.424-0.126,2.849,0.048,4.264
					c0.12,0.981,0.113,3.65,1.437,3.938c0.998,0.216,2.146-1.26,2.646-1.862c0.364-0.437,1.239-2.179,1.804-2.395
					c1.13-0.431,0.892,0.896,1.514,1.357c0.679,0.504,0.996,0.229,1.584-0.206c0.775-0.574,0.456-1.13,1.834-1.412
					c0.331-0.068,0.685,0.171,1.077,0.032c1.077-0.381,2.306-1.685,2.965-2.588c0.688-0.941,1.158-2.294,1.713-3.349
					c0.16-0.305,0.665-1.568,1.093-1.648c0.442,0.48,0.883,0.959,1.325,1.439c0.021,0.478,0.024,0.956,0.01,1.434
					c-0.004,0.372,0.654,0.226,0.677-0.095c0.134-1.828,1.095-4.695,3.25-4.758c1.259-0.037,0.797,0.574,1.585,1.317
					c0.151,0.142,0.4,0.102,0.541-0.036c0.63-0.617,2.216-3.234,3.276-2.225c0.177,0.168,0.452,0.084,0.589-0.092
					c0.261-0.337,1.379-2.278,1.821-1.689c0.122,0.162,0.411,0.091,0.533-0.026c0.612-0.587,1.177-0.992,1.891-1.338
					c0.241-0.117,0.535-0.134,0.789-0.236c1.196-0.477,2.132-1.569,2.923-2.543c1.27-1.561,2.241-3.06,2.869-4.721
					c-0.076,1.599-0.176,3.197-0.285,4.795c-0.513,2.521-0.506,4.99-0.485,7.704c0.003,0.388,0.685,0.207,0.7-0.13
					c0.115-2.567,0.302-5.137,0.474-7.708c0.092-0.419,0.196-0.838,0.326-1.259c0.384-1.251,0.746-3.046,1.774-3.921
					c0.786-0.669,1.223-0.298,1.261,0.342c-0.299,0.352-0.382,0.931-0.3,1.325c0.059,0.281,0.542,0.123,0.636-0.046
					c0.041-0.073,0.074-0.16,0.108-0.245c0.337-0.154,0.458-0.062,0.341,0.3c-0.006,0.309-0.028,0.617-0.066,0.924
					c-0.035,0.39,0.572,0.17,0.671-0.032c0.873-1.797,3.766-3.441,5.542-4.261c0.445-0.205,0.796-0.232,1.135-0.552
					c0.101-0.095,2.387-3.596,2.598-1.829c0.028,0.234,0.32,0.279,0.496,0.162c1.01-0.678,1.452-1.952,2.57-2.529
					c2.689-1.387,0.917,0.108,2.413,0.354c0.938,0.154,4.419-4.137,4.389-4.295c0.061,0.321,0.708,0.119,0.646-0.211
					C165.281,188.992,165.268,188.926,165.256,188.86z"/>
				<path id="XMLID_79_" style="fill:#455A64;" d="M200.07,167.173c-0.485,1.076-1.753,2.381-2.58,3.26
					c-0.454,1.208-1.55,1.554-3.291,1.036c-0.106-0.15-0.232-0.28-0.375-0.389c-0.165,0.023-0.442-0.136-0.651-0.127
					c-1.303,0.058-1.995,3.517-3.076,2.042c-0.11-0.15-0.362-0.077-0.486-0.004c-0.767,0.448-1.417,1.154-1.871,1.919
					c-0.184,0.31-0.283,0.885-0.491,1.089c-0.058,0.057-0.099,0.099-0.148,0.148c-0.06,0-0.161,0.024-0.323,0.089
					c-0.08,0.032-0.593-0.157-0.782-0.113c-0.373,0.087-0.617,0.479-0.824,0.762c-0.45,0.614-0.59,1.409-0.953,2.066
					c-0.107,0.194-0.149,0.292-0.163,0.331c0.028-0.087,0.113-0.474-0.28-0.744c-0.961-0.661-1.905,0.898-2.522,1.993
					c-0.215-1.116-0.573-2.279-1.889-1.745c-1.575,0.639-2.118,2.03-2.61,3.437c-0.045-2.03-0.261-4.926-1.929-4.62
					c-1.097,0.201-2.222,2.25-2.716,3.063c-0.693,1.142-0.966,2.839-1.882,3.807c-0.185,0.196,0.285,0.332,0.427,0.195
					c1.23-1.178,1.781-3.5,2.805-4.892c0.423-0.576,1.088-1.8,2.079-0.937c0.284,0.247,0.201,1.377,0.254,1.806
					c0.144,1.16,0.148,2.311,0.264,3.469c0.039,0.384,0.603,0.179,0.712-0.044c0.353-0.722,0.498-1.463,0.821-2.202
					c0.172-0.738,0.558-1.35,1.157-1.835c1.309-0.022,1.948,0.516,1.917,1.614c0.072,0.341,0.528,0.208,0.682,0.014
					c0.427-0.537,1.76-3.242,2.191-1.672c0.055,0.199,0.224,0.23,0.409,0.198c1.019-0.173,1.771-4.298,2.697-3.017
					c0.104,0.144,0.372,0.085,0.488,0.003c0.997-0.712,1.537-4.364,3.006-2.692c0.069,0.078,0.21,0.107,0.308,0.078
					c0.841-0.249,1.005-0.966,1.548-1.594c0.41-0.475,0.209-0.577,0.981-0.825c1.437-0.462,0.162-0.017,1.051,0.129
					c0.597,0.098,0.767,0.344,1.434,0.294c0.777-0.058,1.605-0.501,2.117-1.079c0.645-0.729,1.098-1.641,1.732-2.4
					c0.525-0.628,1.006-1.092,1.291-1.862C200.695,166.963,200.165,166.961,200.07,167.173z"/>
				<path id="XMLID_78_" style="fill:#455A64;" d="M221.943,157.253c-0.669,0.031-0.799,0.12-1.382,0.443
					c-1.18,0.655-2.291,1.563-3.453,2.262c-0.595,0.358-1.099,0.906-1.669,1.257c-1.462,0.898-1.871-0.204-2.821-1.239
					c-0.085-0.093-0.243-0.076-0.35-0.049c-1.232,0.309-1.189,1.269-2.137,1.869c-0.627,0.396-0.598,0.473-1.106-0.246
					c-0.306-0.434-0.318-0.904-0.703-1.31c-0.131-0.138-0.351-0.084-0.491,0.001c-1.124,0.684-1.773,1.882-2.661,2.824
					c-1.003,1.064-2.032,3.068-3.409,3.555c-0.254,0.09-0.031,0.336,0.164,0.295c1.055-0.222,1.482-0.987,2.158-1.801
					c0.643-0.776,1.34-1.482,2.023-2.222c0.346-0.375,0.987-1.525,1.308-1.621c1.379-0.413,0.889,2.834,2.692,1.629
					c0.493-0.329,0.566-1.069,1.024-1.404c1.345-0.985,1.245-0.265,1.989,0.245c0.669,0.458,0.881,1.091,1.764,0.883
					c0.234-0.055,0.379-0.312,0.584-0.417c0.154-0.161,0.289-0.338,0.406-0.531c0.785-0.742,1.672-1.293,2.661-1.654
					c1.046-0.714,2.067-1.938,3.332-2.211C222.163,157.746,222.387,157.232,221.943,157.253z"/>
			</g>
			<g id="XMLID_70_">
				<path id="XMLID_73_" style="fill:#455A64;" d="M139.64,223.422c-0.459,1.765-3.132,4.106-4.566,1.872
					c-0.633-0.986-0.275-3.146-0.275-4.284c0-1.767,0-3.533-0.001-5.3c0.02-1.312,0.005-2.631-0.001-3.954
					c-0.002-0.486-0.778-0.298-0.778,0.104l0,2.55c-0.036,4.224-0.35,8.201-2.337,12.167c-0.446,0.891-0.954,2.235-1.627,2.966
					c-1.284,1.394-2.458,1.231-3.232,0.599c0.163-0.323,0.319-0.641,0.482-0.918c0.306-0.521,1.204-1.467,0.923-2.185
					c-0.391-1-2.211-0.936-2.72-0.078c-0.561,0.945-0.28,2.22,0.403,3.178c-0.628,0.873-1.415,1.777-2.381,0.846
					c-0.162-0.156-0.452-0.063-0.579,0.088c-0.5,0.592-0.734,1.346-1.197,1.935c-0.619,0.788-0.671,1.956-1.944,2.001
					c-0.249,0.009-0.511-0.045-0.702-0.205c-0.622-0.52,0.175-1.703,0.296-2.325c0.167-0.855,0.201-1.856-0.301-2.613
					c-0.104-0.157-0.292-0.176-0.459-0.1c-1.646,0.745-2.826,2.824-2.275,4.64c0.111,0.364,0.597,0.869,0.406,1.146
					c-0.235,0.342-0.955,0.307-1.287,0.202c-0.51-0.161-0.92-0.542-1.268-0.948c-0.878-1.027-2.379,2.973-2.671,3.525
					c-0.688,1.296-1.172,2.511-2.451,3.318c-0.232,0.146-0.503,0.264-0.773,0.217c-0.605-0.104-0.417-0.759-0.526-1.175
					c0.053,0.201-0.067-1.046-0.052-0.926c-0.021-0.166-0.28-0.166-0.389-0.137c-0.73,0.192-0.766,0.648-1.214,1.313
					c-0.214,0.318-0.542,0.901-0.785,1.197c-0.194,0.509-0.573,0.876-1.138,1.101c-0.184,0-0.367,0.002-0.55,0.006
					c-0.666,0.476-1.174,1.212-1.858,1.663c-1.108,0.732-2.07,1.211-2.198-0.553c-0.043-0.598-0.024-1.122-0.156-1.707
					c-0.061-0.27-0.502-0.141-0.609,0.015c-0.714,1.037-1.254,1.97-1.726,3.135c-0.286,0.706-2.227,5.38-2.963,2.204
					c-0.228-0.981,1.02-2.824,1.434-3.715c0.793-1.708,0.872-2.174,3.41-2.433c0.31-0.031,1.231,0.08,1.415,0.072
					c0.233-0.01,0.187-0.278-0.027-0.284c-1.647-0.048-2.702-0.889-4.123,0.392c-0.955,0.861-1.296,2.266-1.831,3.385
					c-0.495,1.035-1.09,2.037-0.966,3.239c0.115,1.114,0.769,1.89,1.924,1.299c0.683-0.35,1.126-1.372,1.449-2.002
					c0.74-1.442,1.276-2.892,2.073-4.276c0.076,1.068-0.034,2.081,0.836,2.922c0.093,0.09,0.243,0.126,0.368,0.074
					c1.022-0.429,1.726-1.15,2.581-1.83c0.727-0.578,1.784-0.732,2.444-1.34c0.675-0.621,1.037-1.625,1.548-2.37
					c0.002-0.003,0.364-0.454,0.515-0.714c-0.044,0.313-0.065,0.951-0.03,1.102c0.324,1.377,1.384,1.28,2.394,0.547
					c0.888-0.644,1.464-1.639,2.017-2.554c0.72-1.191,1.211-3.001,2.153-4.097c0.637,1.513,2.44,1.764,3.778,0.648
					c0.048-0.04,0.094-0.102,0.142-0.147c1.092,0.455,2.549,0.044,3.488-0.853c0.5-0.477,0.798-1.03,1.122-1.635
					c0.177-0.386,0.363-0.767,0.558-1.145c0.298-0.549,0.606-0.589,0.924-0.119c0.792,0.01,0.869,0.298,1.646-0.169
					c0.457-0.275,0.793-0.727,1.08-1.22c0.545,0.483,1.209,0.776,1.887,0.701c2.481-0.276,3.937-4.47,4.747-6.304
					c0.349-0.791,0.608-1.593,0.829-2.401c-0.053,1.24-0.012,2.588,0.749,3.395c2.235,2.369,5.116-0.402,5.726-2.717
					C140.56,222.923,139.751,222.998,139.64,223.422z M117.046,232.737c0.206-1.172,1.905-2.929,1.641-0.775
					c-0.055,0.452-0.184,0.896-0.316,1.33c-0.078,0.317-0.189,0.622-0.335,0.916c-0.019,0.071-0.049,0.124-0.072,0.189
					C117.066,234.48,116.786,234.213,117.046,232.737z M125.806,227.801c0.029-0.294,0.133-0.594,0.397-0.702
					c0.11-0.045,0.233-0.048,0.352-0.04c0.162,0.011,0.328,0.045,0.458,0.142c0.167,0.124,0.251,0.337,0.259,0.546
					c0.013,0.34-0.097,0.691-0.335,0.933c-0.176,0.252-0.35,0.504-0.523,0.757c-0.034,0.044-0.069,0.092-0.104,0.141
					c-0.004,0.006-0.35-0.753-0.376-0.837c-0.076-0.253-0.139-0.517-0.136-0.783C125.798,227.906,125.801,227.854,125.806,227.801z"
					/>
				<path id="XMLID_72_" style="fill:#455A64;" d="M182.013,196.594c-0.086,0.013-0.171,0.027-0.257,0.04
					c-0.127,0.02-0.222,0.118-0.255,0.236c-0.262,0.914-1.672,2.937-2.421,3.674c-2.59,2.549-2.489-1.211-2.629-2.534
					c-0.028-0.266-0.358-0.253-0.532-0.143c-1.225,0.772-1.817,1.824-2.449,3.105c-0.146,0.296-1.014,2.259-1.18,2.196
					c0.254,0.096-0.133-1.725-0.287-1.989c-0.061-0.105-0.258-0.117-0.358-0.079c-2.208,0.842-4.296,3.366-4.854,5.776
					c-0.286-0.255-0.665-0.293-1.221-0.049c-0.629,0.276-1.095,1.787-1.562,1.857c0.036-0.005-0.543-0.705-0.773-0.767
					c-1.211-0.326-2.676,1.49-3.385,2.189c-1.873,1.845-0.889-0.875-2.568-1.047c-0.119-0.012-0.304,0.03-0.371,0.144
					c-0.809,1.364-1.564,2.785-2.554,4.03c-0.885,1.112-1.604,1.538-1.965-0.219c-0.25-1.215,0.776-2.526,0.935-3.742
					c0.037-0.281-0.436-0.265-0.553-0.1c-2.117,2.978-3.555,6.199-6.15,8.857c-0.19,0.194,0.281,0.311,0.43,0.165
					c2.202-2.156,3.543-4.698,5.147-7.208c-0.522,1.584-1.081,3.623,0.17,4.126c1.175,0.473,2.448-1.572,2.941-2.264
					c0.521-0.73,0.975-2.012,1.646-2.6c0.648-0.568,0.227-0.56,0.885,0.215c0.247,0.291,0.291,0.775,0.635,1
					c0.439,0.288,0.762,0.366,1.215,0.097c0.574-0.342,2.981-4.803,3.761-2.304c0.047,0.151,0.258,0.186,0.388,0.138
					c0.571-0.211,2.285-2.989,2.816-1.462c0.098,0.283,0.631,0.153,0.643-0.126c0.089-1.978,1.177-3.264,2.462-4.628
					c0.536-0.568,1.08-1.691,1.914-0.713c-0.061-0.071,0.14,1.305,0.123,1.247c0.059,0.201,0.33,0.168,0.47,0.104
					c1.786-0.803,2.032-3.701,3.524-5.143c0.068,1.54-0.012,3.732,2.122,3.366c0.869-0.149,1.426-0.831,1.922-1.512
					c0.481-0.66,0.926-1.327,1.419-1.981c0.069-0.091,0.864-1.539,0.912-1.553C182.497,196.898,182.303,196.548,182.013,196.594z"/>
				<path id="XMLID_71_" style="fill:#455A64;" d="M215.584,178.49c-0.643-0.035-0.994,0.097-1.499,0.499
					c-0.407,0.324-0.621,0.822-0.999,1.161c-1.97,1.764-2.978-0.172-3.216-1.949c-0.05-0.378-0.558-0.186-0.69,0.018
					c-0.816,1.255-0.479,2.638-1.499,3.966c-0.803,1.046-3.747,4.648-4.299,1.589c-0.057-0.318-0.477-0.232-0.64-0.055
					c-0.773,0.839-1.24,1.873-1.973,2.75c-0.428,0.512-1.655,1.932-2.087,1.908c-1.146-0.063-1.16-1.815-1.229-2.528
					c-0.031-0.315-0.451-0.23-0.611-0.08c-0.378,0.357-3.597,7.086-4.489,6.402c-0.239-0.183-0.775,0.158-0.478,0.39
					c1.694,1.326,3.769-3.422,4.899-5.562c0.006,1.163,0.088,2.35,1.648,2.056c2.117-0.4,3.185-2.841,4.403-4.475
					c0.476,1.309,1.576,1.693,2.901,0.732c1.067-0.773,2.234-2.321,2.94-3.419c0.469-0.729,0.537-1.551,0.708-2.325
					c0.294,1.093,0.878,2.072,2.229,2.116c1.844,0.06,2.143-2.561,3.88-2.668C215.794,178.995,215.992,178.512,215.584,178.49z"/>
			</g>
			<path id="XMLID_65_" style="fill:#455A64;" d="M123.844,248.655c0.637-0.764,1.094-1.377,2.145-1.382
				c0.101,0,0.206,0.004,0.295,0.053c0.072,0.04,0.126,0.104,0.179,0.168c0.488,0.592,0.922,1.117,1.747,1.177
				c0.974,0.071,2.754-1.54,4.006-3.23c1.008,0.385,2.751-0.99,3.526-1.711c0.407-0.379-0.182-0.734-0.538-0.402
				c-0.459,0.872-1.241,1.409-2.246,1.436c-0.059,0.002-0.137-0.015-0.141-0.074c0.085-0.679,1.553-2.413,0.395-2.898
				c-1.072-0.448-1.799,1.466-1.744,2.22c0.03,0.411,0.114,0.716,0.234,0.947c-0.285,0.464-0.581,0.925-0.912,1.358
				c-0.318,0.415-0.77,0.633-1.137,1.011c-0.202,0.208-0.427,0.407-0.703,0.494c-0.319,0.101-1.018-0.068-1.289-0.277
				c-0.671-0.518,0.503-1.262,0.845-1.676c0.472-0.571,0.899-1.194,1.214-1.866c0.454-0.968,0.662-2.328-0.785-2.369
				c-1.977-0.056-3.056,2.828-2.681,4.922c-0.393,0.065-0.784,0.11-1.195,0.318c-0.685,0.346-1.23,1.056-1.71,1.638
				c-0.815,0.988-1.209,1.547-1.15-0.141c0.011-0.322-0.503-0.253-0.604-0.033c-0.744,1.599-1.434,3.594-2.609,4.936
				c-0.682,0.779-1.727,1.654-2.514,1.278c0.79-1.186,1.39-2.493,1.746-3.95c0.237-0.967,1.006-4.136-0.896-4.285
				c-1.533-0.12-2.052,3.073-2.218,3.962c-0.243,1.305-0.371,3.115,0.321,4.319c0.046,0.08,0.094,0.146,0.141,0.217
				c-0.344,0.489-0.723,0.952-1.148,1.382c-0.71,0.718-1.69,1.784-2.791,1.776c-0.211-0.002-0.439-0.056-0.568-0.223
				c-0.454-0.584,0.656-1.701,0.891-2.233c0.371-0.841,0.507-1.755,0.374-2.667c-0.021-0.145-0.116-0.201-0.253-0.221
				c-0.094-0.014-0.189-0.027-0.283-0.041c-0.147-0.021-0.301,0.074-0.385,0.185c-0.676,0.888-1.536,3.057-1.331,4.549
				c-0.237,0.263-0.481,0.523-0.726,0.798c-0.632,0.709-1.84,2.815-2.767,1.056c-0.043-0.081-0.194-0.111-0.274-0.095
				c-0.615,0.119-0.683,0.346-1.078,0.883c-0.372,0.505-0.832,1.811-1.826,0.919c-0.022-0.019-0.034-1.27-0.072-1.448
				c-0.058-0.27-0.468-0.141-0.587-0.007c-0.947,1.057-1.384,2.748-2.322,3.842c0.116-0.774,0.443-1.587,0.666-2.268
				c0.122-0.373-0.531-0.351-0.638-0.057c-0.786,2.167-1.622,4.549-3.281,6.185c-0.577,0.874-1.425,1.152-2.541,0.834
				c-0.624-1.137-0.543-2.208,0.241-3.212c0.416-0.985,1.076-1.803,1.981-2.455c0.904-0.419,1.295-0.328,1.175,0.275
				c-0.007,0.246,0.491,0.208,0.516-0.03c0.135-1.244-1.027-1.102-1.939-0.687c-1.521,0.692-3.356,3.569-3.249,5.245
				c0.094,1.465,1.659,1.881,2.885,1.435c1.694-0.617,2.819-2.449,3.637-4.323c0.127,0.039,0.298,0,0.401-0.072
				c1.218-0.853,1.674-2.486,2.474-3.775c-0.006,0.949-0.13,1.923,1.21,1.672c0.908-0.17,0.964-0.866,1.519-1.459
				c0.897-0.959,0.296-0.525,1.166-0.003c1.207,0.725,1.95-0.729,2.661-1.527c0.318-0.358,0.642-0.715,0.958-1.077
				c0.054,0.114,0.097,0.237,0.174,0.331c1.113,1.356,2.553-0.028,3.497-0.865c0.754-0.668,1.43-1.386,2.021-2.158
				c1.901,1.736,4.44-2.979,5.634-5.526c0.083,0.407,0.311,0.686,0.893,0.547C123.01,250.173,123.549,249.009,123.844,248.655z
				 M111.214,255.701c-0.064,0.146-0.13,0.291-0.202,0.432c-0.168,0.327-0.26,0.435-0.293,0.005
				c-0.048-0.622,0.175-1.361,0.377-1.941c0.083-0.238,0.188-0.483,0.39-0.635c0.082-0.062,0.224-0.092,0.269,0
				c0.012,0.025,0.013,0.054,0.014,0.083c0.006,0.201,0.013,0.403-0.014,0.602c-0.048,0.352-0.196,0.68-0.342,1.004
				C111.345,255.399,111.281,255.551,111.214,255.701z M115.887,253.926c-0.258-0.511-0.249-1.192-0.272-1.76
				c-0.063-1.528,0.249-2.926,0.765-4.364c0.033-0.091,0.067-0.184,0.127-0.261c0.156-0.202,0.463-0.248,0.696-0.143
				c0.233,0.105,0.394,0.331,0.475,0.573c0.08,0.242,0.089,0.502,0.088,0.757c-0.003,0.855-0.057,1.768-0.345,2.578
				c-0.261,0.734-0.646,1.414-1.005,2.103c-0.128,0.246-0.264,0.487-0.406,0.722C115.968,254.068,115.926,254.002,115.887,253.926z
				 M127.108,246.231c-0.04-0.029-0.076-0.076-0.107-0.145c-0.037-0.082-0.032-0.176-0.026-0.266
				c0.049-0.745,0.03-1.448,0.289-2.157c0.248-0.678,0.716-1.381,1.525-1.345c0.113,0.005,0.227,0.031,0.321,0.094
				c0.766,0.518,0.029,1.694-0.333,2.228c-0.25,0.368-0.531,0.718-0.838,1.04C127.787,245.841,127.369,246.421,127.108,246.231z"/>
			<path id="XMLID_64_" d="M138.623,242.598c-0.404,0-0.628,0.625-0.123,0.625C138.904,243.223,139.128,242.598,138.623,242.598z"/>
		</g>
	</g>
</g>
<g id="Character">
	<g id="XMLID_1_">
		<g id="XMLID_29_">
			<path id="XMLID_61_" style="fill:#B16668;" d="M356.82,131.675c-4.725,7.989-9.271,14.929-12.463,18.256
				c-6.061,2.819-20.301,7.153-25.873,7.878c-0.988,0.129-1.98-0.124-2.796-0.659c-2.191-1.436-3.885-1.669-6.195-2.468
				c-1.808-0.626-2.574-1.489-2.914-1.161c-0.436,0.422-0.912,1.622,0.189,2.865c0.554,0.625,1.563,1.307,2.862,2.141
				c0,0-3.984,1.063-7.543,0.129c-4.823-1.266-7.1,1.053-3.838,6.29c1.168,1.875,5.767,4.878,15.086,4.067
				c2.685-0.233,6.56-0.458,9.902-1.171c8.939-1.908,18.875-3.756,24.984-5.581c1.542-0.46,4.294-2.244,5.934-4.112
				c10.276-11.713,13.679-20.059,18.184-27.644l-0.389-12.394C364.669,117.886,360.774,124.99,356.82,131.675z"/>
			<path id="XMLID_60_" style="fill:#455A64;" d="M373.207,117.886c0,0-6.359-1.353-11.14,4.763
				c-5.002,6.4-13.846,21.771-13.846,21.771s2.902,7.708,10.708,8.975l12.541-16.94C371.472,136.455,377.41,124.728,373.207,117.886
				z"/>
			<g id="XMLID_53_">
				<rect id="XMLID_59_" x="392.147" y="290.645" style="fill:#B16668;" width="8.176" height="14.578"/>
				<polygon id="XMLID_58_" style="fill:#B16668;" points="371.976,289.866 363.805,290.159 363.395,274.732 371.976,274.439 				
					"/>
				<path id="XMLID_57_" style="fill:#37474F;" d="M401.474,164.43c0,8.132-1.197,73.573-1.197,73.573
					c0.191,2.34,2.297,6.654,1.841,15.641c-0.619,12.208-1.445,44.289-1.445,44.289s-3.969,2.416-9.103,0.187
					c0,0-7.733-44.434-9.199-56.533c-1.279-10.558-3.448-46.107-3.448-46.107l-4.432,41.335c0,0,1.507,6.297,1.013,13.533
					c-0.382,5.596-3.011,34.739-3.011,34.739s-3.849,2.72-9.44,0.752c0,0-4.651-43.891-4.746-49.025
					c-0.108-5.854,2.719-72.472,2.719-72.472L401.474,164.43z"/>
				<path id="XMLID_56_" style="fill:#263238;" d="M392.147,301.019v-1.218c-0.782,0.355-2.6,7.578-5.844,10.66
					c-2.579,2.45-6.097,5.28-6.992,8.011c-0.931,2.841,4.899,4.409,7.309,3.965c2.799-0.516,7.652-2.57,8.87-4.473
					c1.218-1.903,1.788-4.711,2.778-6.106c0.99-1.395,3.271-2.952,3.807-4.567c0.294-0.887-0.055-2.829-0.468-4.47
					c-0.379-1.506-0.79-3.161-1.283-3.02c-0.001,0.184,0,0.928,0,0.928c-0.594,0.685-2.236,1.365-4.088,1.439
					C395.039,302.216,392.137,301.969,392.147,301.019z"/>
				<path id="XMLID_55_" style="fill:#263238;" d="M363.718,287.533c-0.425,0.015-0.77,0.639-1.707,1.695
					c-1.132,1.276-2.983,2.652-4.81,3.604c-3.061,1.596-9.014,4.052-11.707,5.316c-1.683,0.789-1.604,2.907,0.135,4.111
					c1.74,1.205,5.939,2.073,10.982,0.898c2.747-0.64,6.323-3.283,8.587-3.14c2.264,0.143,6.499,0.109,8.17-1.091
					c1.671-1.199,1.002-3.761,0.53-5.962c-0.515-2.403-1.16-6.149-1.923-5.985v0.828c-0.983,1.55-6.056,2.181-8.215,1.04
					L363.718,287.533z"/>
				<path id="XMLID_54_" style="fill:#263238;" d="M378.923,195.481c0,0-6.535-1.917-11.385-6.799c0,0,2.197,4.284,8.73,8.271
					l-1.397,36.912L378.923,195.481z"/>
			</g>
			<g id="XMLID_50_">
				<path id="XMLID_52_" style="fill:#27DEBF;" d="M396.897,119.105c0,0,6.722,1.555,6.268,13.745l-1.414,19.416l0.039,29.137
					c-6.013,6.813-32.666,6.314-41.791-0.545c0,0,1.034-34.482,1.65-47.75c0.438-9.433,2.608-14.182,11.879-15.221l11.401,0.502
					L396.897,119.105z"/>
				<polygon id="XMLID_51_" style="opacity:0.1;" points="379.052,126.468 377.585,136.704 374.165,136.64 378.023,137.249 				"/>
			</g>
			<g id="XMLID_33_">
				<path id="XMLID_49_" style="fill:#263238;" d="M388.306,93.766c0,7.002-5.45,12.678-12.172,12.678
					c-6.722,0-10.701-5.832-12.172-12.678c-2.691-12.52,5.45-12.678,12.172-12.678S388.306,86.764,388.306,93.766z"/>
				<g id="XMLID_41_">
					<path id="XMLID_48_" style="fill:#263238;" d="M394.517,98.894c0,0-1.867,9.135-2.616,10.636
						c-0.749,1.501-2.296,1.928-2.296,1.928l0.13-6.426L394.517,98.894z"/>
					<path id="XMLID_47_" style="fill:#263238;" d="M392.174,85.807c0,0,1.339-0.335,2.761,1.887
						c1.219,1.905,1.496,6.183-0.418,11.201L391,99.315L392.174,85.807z"/>
					<path id="XMLID_46_" style="fill:#B16668;" d="M389.945,99.318c0.705,0.439,1.711-0.972,2.581-1.92
						c0.87-0.948,3.708-2.243,5.125,0.865c1.443,3.167-1.25,7.352-3.485,8.083c-3.851,1.259-4.43-1.314-4.43-1.314l-0.294,14.47
						c-5.113,7.909-16.696,7.624-12.531-0.383l0.011-4.404c0,0-3.49,0.552-5.192,0.278c-2.833-0.456-4.615-2.784-5.474-5.977
						c-1.38-5.129-1.904-9.271-0.733-19.358c1.283-11.057,13.63-11.172,20.298-6.801C392.488,87.228,389.945,99.318,389.945,99.318z
						"/>
					<path id="XMLID_45_" style="fill:#263238;" d="M391.062,81.426c0.177-0.383,0.283-0.805,0.283-1.255
						c0-1.658-1.344-3.002-3.001-3.002c-0.719,0-1.369,0.263-1.886,0.684c-0.371-1.215-1.487-2.104-2.823-2.104
						c-0.894,0-1.687,0.404-2.23,1.031c-0.605-1.247-1.872-2.115-3.352-2.115c-1.067,0-2.023,0.452-2.704,1.169
						c-0.57-1.381-1.927-2.354-3.514-2.354c-2.101,0-3.803,1.703-3.803,3.804c0,0.138,0.026,0.268,0.041,0.402
						c-0.491-0.155-1.012-0.24-1.554-0.24c-2.845,0-5.152,2.306-5.152,5.152c0,2.845,2.307,5.152,5.152,5.152
						c0.801,0,1.556-0.188,2.232-0.514c0.333,1.679,1.813,2.946,3.59,2.946c1.648,0,3.026-1.096,3.485-2.593
						c0.465,0.984,1.458,1.669,2.619,1.669c1.185,0,2.199-0.712,2.651-1.729c1.245,1.562,3.922,1.577,5.072-0.203
						c1.046,0.475,1.271,3.728,1.455,4.669c0.619,3.167,1.133,8.535,2.325,8.559c0.355,0.007,1.703-2.324,2.581-3.155
						c1.216-1.153,1.459-10.679,1.459-10.679S395.637,82.322,391.062,81.426z"/>
					<path id="XMLID_44_" style="fill:#455A64;" d="M389.508,116.258c0,0-1.799,3.89-5.008,6.275
						c-2.95,2.192-6.059,2.575-6.059,2.575s3,1.987,4.275,4.8c1.275,2.813,10.494-6.933,10.272-11.037c0,0-1.493-4.906-3.427-5.261
						L389.508,116.258z"/>
					<path id="XMLID_43_" style="fill:#455A64;" d="M378.441,125.108c0,0-2.774-1.379-1.53-5.989l0.011-4.404l-1.216,0.163
						c-0.946,0.852-2.436,2.858-2.923,5.064c-0.278,1.261-0.962,7.65,0.256,8.92C374.149,130.018,375.955,125.451,378.441,125.108z"
						/>
					<path id="XMLID_42_" style="fill:#9A4A4D;" d="M376.921,114.716c0,0,6.323-1.327,8.534-2.55
						c1.48-0.819,2.698-2.239,3.056-3.149c0,0-0.414,1.954-1.736,3.714c-1.617,2.152-9.853,3.738-9.853,3.738L376.921,114.716z"/>
				</g>
				<g id="XMLID_34_">
					<path id="XMLID_40_" style="fill:#263238;" d="M378.441,97.671c0,0.757,0.568,1.37,1.267,1.368
						c0.7-0.002,1.267-0.617,1.267-1.375c0-0.757-0.567-1.369-1.267-1.368C379.009,96.299,378.441,96.914,378.441,97.671z"/>
					<path id="XMLID_39_" style="fill:#263238;" d="M380.476,92.207l2.711,1.558c0.4-0.811,0.117-1.818-0.632-2.248
						C381.806,91.088,380.876,91.396,380.476,92.207z"/>
					<path id="XMLID_38_" style="fill:#9A4A4D;" d="M377.494,106.788l-2.893,1.131c0.286,0.863,1.166,1.311,1.965,0.998
						C377.365,108.604,377.78,107.651,377.494,106.788z"/>
					<path id="XMLID_37_" style="fill:#263238;" d="M366.818,93.369l2.472-1.983c-0.504-0.737-1.466-0.891-2.149-0.343
						C366.458,91.59,366.313,92.632,366.818,93.369z"/>
					<path id="XMLID_36_" style="fill:#263238;" d="M367.903,97.296c0,0.757,0.567,1.37,1.267,1.367
						c0.7-0.002,1.267-0.617,1.267-1.375c0-0.757-0.567-1.369-1.267-1.368C368.47,95.923,367.903,96.538,367.903,97.296z"/>
					<polygon id="XMLID_35_" style="fill:#9A4A4D;" points="374.683,96.236 374.536,104.239 369.995,103.197 					"/>
				</g>
			</g>
			<g id="XMLID_30_">
				<path id="XMLID_32_" style="fill:#B16668;" d="M423.916,155.995c-1.905-6.779-8.883-20.092-12.389-26.489
					c-4.98-9.086-9.689-10.331-14.839-10.404c-1.894,2.445-2.11,13.881,4.386,20.698c2.485,5.233,10.388,18.631,10.388,18.631
					c-0.193,1.411-5.543,16.298-7.758,21.092c-0.392,0.849-1.104,1.507-1.962,1.881c-2.301,1.002-3.352,2.226-5.184,3.649
					c-1.435,1.114-2.54,1.279-2.438,1.717c0.131,0.563,0.888,1.555,2.477,1.318c0.8-0.119,1.878-0.57,3.228-1.173
					c0,0-1.267,2.454-3.843,4.798c-3.491,3.177-3.309,5.834,2.641,6.777c3.728,0.591,7.051-1.267,11.089-9.074
					c1.163-2.249,2.404-5.65,3.834-8.523c2.958-5.943,3.951-7.225,6.309-11.694C423.257,162.749,424.761,159.003,423.916,155.995z"
					/>
				<path id="XMLID_31_" style="fill:#455A64;" d="M395.645,119.101c0,0,5.026-1.032,10.116,2.403
					c5.089,3.434,15.234,25.226,15.234,25.226s0.258,5.501-13.239,7.284l-7.37-13.715
					C400.386,140.299,393.563,133.718,395.645,119.101z"/>
			</g>
		</g>
		<g id="XMLID_2_">
			<g id="XMLID_23_">
				<path id="XMLID_26_" style="fill:#27DEBF;" d="M302.396,294.503c-0.093-0.261-0.144-0.537-0.159-0.804l0.026,1.718
					c-0.001,0.102,0.011,0.208,0.018,0.306l0.009,0.066c0.004,0.11,0.023,0.211,0.042,0.312l0.038,0.151
					c0.017,0.082,0.035,0.163,0.065,0.247l0.149,0.391c0.056,0.13,0.125,0.263,0.201,0.391l0.013,0.023
					c0.491,0.832,1.305,1.605,2.465,2.256c3.959,2.229,10.346,2.166,14.262-0.148c0.559-0.33,1.035-0.683,1.429-1.068
					c0.082-0.069,0.159-0.145,0.232-0.229c0.048-0.039,0.085-0.081,0.124-0.135c0.08-0.088,0.156-0.184,0.232-0.28
					c0.267-0.342,0.471-0.687,0.615-1.047c0.041-0.086,0.07-0.174,0.097-0.251c0.011-0.017,0.014-0.029,0.012-0.048
					c0.029-0.089,0.051-0.173,0.073-0.257c0.034-0.132,0.063-0.272,0.073-0.411c0.008-0.107,0.021-0.206,0.022-0.309
					c-0.003-0.039-0.001-0.071,0.004-0.114l-0.032-1.97c0.007,0.322-0.033,0.652-0.129,0.973c-0.355-1.136-1.294-2.224-2.834-3.087
					c-3.963-2.237-10.351-2.174-14.266,0.14C303.642,292.227,302.72,293.343,302.396,294.503z M322.408,294.931
					c-0.005-0.046-0.005-0.091-0.012-0.137C322.403,294.839,322.403,294.885,322.408,294.931z"/>
				<path id="XMLID_25_" style="fill:#F0F0F0;" d="M300.235,86.981l20.175-0.236l0.02,1.966l1.975,204.583
					c0.007,0.322-0.033,0.652-0.129,0.973c-0.328,1.153-1.25,2.268-2.784,3.175c-3.915,2.314-10.303,2.377-14.266,0.14
					c-1.155-0.643-1.974-1.424-2.46-2.248c-0.161-0.272-0.283-0.547-0.369-0.832c-0.093-0.261-0.144-0.537-0.159-0.804
					c-0.007-0.047-0.007-0.098-0.01-0.137l0-0.051c0.003-0.012,0.003-0.012-0.001-0.02L300.235,86.981z"/>
				<path id="XMLID_24_" style="fill:#27DEBF;" d="M303.231,91.07c-3.962-2.234-4-5.922-0.084-8.236
					c3.916-2.314,10.302-2.379,14.265-0.145c3.962,2.234,4,5.922,0.084,8.236C313.579,93.24,307.193,93.304,303.231,91.07z"/>
			</g>
			<path id="XMLID_22_" style="fill:#E0E0E0;" d="M304.553,72.476c-0.034,0.081-0.063,0.17-0.085,0.254l-3.985,12.93
				c-0.008,0.005-0.011,0.017-0.014,0.029l-0.03,0.099c-0.027,0.078-0.048,0.157-0.07,0.235l-0.04,0.136h0.008
				c-0.413,1.756,0.546,3.588,2.892,4.911c3.962,2.234,10.349,2.169,14.265-0.145c2.272-1.343,3.204-3.148,2.82-4.863l0.008,0
				l-0.035-0.106c-0.043-0.168-0.099-0.335-0.168-0.501l-0.036-0.108c-0.005-0.008-0.013-0.023-0.01-0.035l-4.234-12.825
				c-0.207-0.643-0.745-1.243-1.601-1.726c-2.267-1.281-5.917-1.245-8.154,0.077C305.283,71.311,304.779,71.874,304.553,72.476z"/>
			<g id="XMLID_19_">
				<path id="XMLID_21_" style="fill:#455A64;" d="M308.206,240.915c-0.011,0.016-0.009,0.036,0,0.051l0,0.275
					c0.057,0.476,0.405,0.944,1.048,1.308c1.406,0.791,3.687,0.768,5.078-0.053c0.612-0.362,0.954-0.819,1.016-1.284
					c0.008-0.005,0.003-0.012,0.003-0.012l-0.005-0.354l-1.526-160.18l-7.172-4.043L308.206,240.915z"/>
				<path id="XMLID_20_" style="fill:#37474F;" d="M313.938,92.288l-0.118-11.622l-7.172-4.043l0.159,15.736
					C309.105,92.836,311.648,92.811,313.938,92.288z"/>
			</g>
			<g id="XMLID_12_">
				<g id="XMLID_16_">
					<path id="XMLID_18_" style="fill:#27DEBF;" d="M306.825,66.967l-0.002,0l-0.011-0.003l-3.615,11.728
						c-0.039,0.105-0.077,0.211-0.098,0.315c-0.323,1.256,0.361,2.568,2.043,3.52c2.796,1.578,7.313,1.534,10.082-0.102
						c1.599-0.945,2.264-2.21,2.009-3.418c-0.009-0.031-0.015-0.056-0.02-0.08l-0.108-0.322l-3.887-11.764l-0.007-0.002
						c-0.118-0.36-0.417-0.704-0.904-0.978c-1.275-0.719-3.329-0.698-4.589,0.047C307.21,66.208,306.919,66.582,306.825,66.967z"/>
					<path id="XMLID_17_" style="opacity:0.1;" d="M306.825,66.967l-0.002,0l-0.011-0.003l-3.615,11.728
						c-0.039,0.105-0.077,0.211-0.098,0.315c-0.323,1.256,0.361,2.568,2.043,3.52c2.796,1.578,7.313,1.534,10.082-0.102
						c1.599-0.945,2.264-2.21,2.009-3.418c-0.009-0.031-0.015-0.056-0.02-0.08l-0.108-0.322l-3.887-11.764l-0.007-0.002
						c-0.118-0.36-0.417-0.704-0.904-0.978c-1.275-0.719-3.329-0.698-4.589,0.047C307.21,66.208,306.919,66.582,306.825,66.967z"/>
				</g>
				<g id="XMLID_13_">
					<path id="XMLID_15_" style="fill:#27DEBF;" d="M307.719,65.905c1.259-0.744,3.312-0.764,4.592-0.042
						c0.483,0.274,0.787,0.618,0.897,0.975l0.011,0.003l1.962,5.945c0.314,0.934-0.147,1.941-1.399,2.681
						c-2.014,1.19-5.306,1.226-7.342,0.08c-1.21-0.68-1.705-1.627-1.489-2.535l0.072-0.235l1.788-5.811l0.011,0.003
						C306.917,66.582,307.209,66.207,307.719,65.905z"/>
					<path id="XMLID_14_" style="opacity:0.1;" d="M307.746,68.556c-1.275-0.719-1.287-1.905-0.027-2.649s3.314-0.765,4.589-0.047
						c1.275,0.719,1.287,1.905,0.027,2.649C311.075,69.254,309.021,69.275,307.746,68.556z"/>
				</g>
			</g>
			<g id="XMLID_9_">
				<path id="XMLID_11_" style="fill:#FAFAFA;" d="M308.517,272.09c-0.002,0.532,0.357,1.053,1.062,1.453
					c1.406,0.791,3.667,0.77,5.046-0.055c0.703-0.415,1.051-0.948,1.034-1.478l0,0l-0.313-30.798
					c-0.062,0.465-0.404,0.922-1.016,1.284c-1.391,0.822-3.672,0.844-5.078,0.053c-0.644-0.364-0.991-0.832-1.048-1.308
					L308.517,272.09z"/>
				<path id="XMLID_10_" style="fill:#F5F5F5;" d="M309.548,270.624c1.383-0.818,3.645-0.839,5.051-0.048
					c0.693,0.396,1.048,0.911,1.049,1.43c0.018,0.53-0.319,1.065-1.022,1.481c-1.379,0.825-3.64,0.846-5.046,0.055
					c-0.705-0.399-1.064-0.921-1.062-1.453C308.512,271.563,308.86,271.031,309.548,270.624z"/>
			</g>
			<path id="XMLID_8_" style="fill:#27DEBF;" d="M303.123,280.979h-0.008l0.001,0.094c0,0.043,0,0.086,0.001,0.129l0.129,12.148
				c-0.003,0.095-0.002,0.189,0.003,0.283l0.001,0.067h0.005c0.1,1.27,0.987,2.517,2.677,3.47c3.566,2.011,9.314,1.952,12.838-0.13
				c1.772-1.047,2.643-2.407,2.619-3.755l0.001,0l-0.126-12.298c0-0.022,0-0.044-0.001-0.066l-0.001-0.073l-0.006,0
				c-0.059-1.305-0.951-2.595-2.687-3.574c-3.566-2.011-9.314-1.953-12.838,0.13C304.04,278.404,303.177,279.69,303.123,280.979z"/>
			<path id="XMLID_7_" style="opacity:0.05;" d="M303.123,280.979h-0.008l0.001,0.094c0,0.043,0,0.086,0.001,0.129l0.129,12.148
				c-0.003,0.095-0.002,0.189,0.003,0.283l0.001,0.067h0.005c0.1,1.27,0.987,2.517,2.677,3.47c3.566,2.011,9.314,1.952,12.838-0.13
				c1.772-1.047,2.643-2.407,2.619-3.755l0.001,0l-0.126-12.298c0-0.022,0-0.044-0.001-0.066l-0.001-0.073l-0.006,0
				c-0.059-1.305-0.951-2.595-2.687-3.574c-3.566-2.011-9.314-1.953-12.838,0.13C304.04,278.404,303.177,279.69,303.123,280.979z"/>
			<path id="XMLID_6_" style="opacity:0.1;" d="M305.808,284.815c-3.566-2.011-3.6-5.329-0.075-7.412
				c3.524-2.083,9.272-2.141,12.838-0.13c3.566,2.011,3.6,5.329,0.075,7.412C315.122,286.768,309.374,286.826,305.808,284.815z"/>
			<g id="XMLID_3_">
				<path id="XMLID_5_" style="fill:#455A64;" d="M308.398,62.12L308.398,62.12l-0.034,5.078h0.004
					c-0.01,0.255,0.151,0.51,0.49,0.701c0.653,0.368,1.706,0.358,2.352-0.024c0.323-0.191,0.483-0.438,0.48-0.684h0l0.052-5.07l0,0
					c-0.008-0.273-0.083-0.548-0.232-0.8c-0.47-0.795-1.496-1.059-2.291-0.589C308.708,61.035,308.417,61.567,308.398,62.12z"/>
				<path id="XMLID_4_" style="fill:#263238;" d="M308.442,61.801l-0.003,0.012c-0.017,0.092-0.035,0.197-0.04,0.292
					c0.005,0.007-0.003,0.012,0.001,0.02c0.035,0.214,0.207,0.42,0.498,0.584c0.656,0.367,1.702,0.361,2.352-0.024
					c0.318-0.188,0.474-0.423,0.473-0.667c0.002-0.032-0.001-0.071-0.007-0.098c0.002-0.032-0.009-0.095-0.009-0.095
					c-0.024-0.18-0.097-0.343-0.195-0.509c-0.469-0.794-1.499-1.052-2.292-0.583C308.804,60.979,308.533,61.369,308.442,61.801z"/>
			</g>
		</g>
	</g>
</g>
<g id="Post_it">
	<g id="XMLID_3505_">
		<g id="XMLID_1397_">
			<polygon id="XMLID_4119_" style="fill:#27DEBF;" points="184.055,372.524 289.668,311.548 391.219,370.179 285.607,431.154 			
				"/>
			<polygon id="XMLID_4132_" style="opacity:0.3;" points="184.055,372.524 289.668,311.548 391.219,370.179 285.607,431.154 			"/>
			<polygon id="XMLID_4120_" style="fill:#27DEBF;" points="184.055,372.524 171.869,365.488 277.482,304.512 289.668,311.548 			
				"/>
			<polygon id="XMLID_4126_" style="opacity:0.1;" points="184.055,372.524 171.869,365.488 277.482,304.512 289.668,311.548 			"/>
			<polygon id="XMLID_4127_" style="fill:#27DEBF;" points="171.869,365.488 171.869,379.559 285.607,445.226 285.607,431.154 			
				"/>
			<polygon id="XMLID_4128_" style="opacity:0.2;" points="171.869,365.488 171.869,379.559 285.607,445.226 285.607,431.154 			"/>
			<polygon id="XMLID_4129_" style="fill:#27DEBF;" points="285.607,431.154 391.219,370.179 391.22,384.25 285.607,445.226 			"/>
			<path id="XMLID_1403_" style="fill:#27DEBF;" d="M371.519,349.354L371.519,349.354l-81.851-37.806l-105.613,60.976
				l101.552,46.905l91.396-52.767c5.58-3.234,10.982-8.686,10.655-15.838C384.475,352.414,379.358,352.974,371.519,349.354z"/>
			<path id="XMLID_1402_" style="opacity:0.3;fill:#FFFFFF;" d="M371.519,349.354L371.519,349.354l-81.851-37.806l-105.613,60.976
				l101.552,46.905l91.396-52.767c5.58-3.234,10.982-8.686,10.655-15.838C384.475,352.414,379.358,352.974,371.519,349.354z"/>
		</g>
		<g id="XMLID_1401_" style="opacity:0.7;">
			<path id="XMLID_1625_" style="fill:#455A64;" d="M295.684,332.504c-0.6,0.608-0.705,1.168-0.837,1.856
				c-0.508,2.64-1.659,4.017-4.861,5.976c-1.536,0.939-1.68,1.663-2.64,2.68c-2.238,2.369-3.179,0.561-5.297-0.295
				c-0.607-0.245-1.318,0.137-1.204,0.512c0.487,1.599,3.165,6.061-1.414,6.329c-2.365,0.139-3.128-1.211-5.105-1.915
				c-2.226-0.791-0.955,3.97-0.776,4.847c0.19,0.93,0.284,1.88,0.278,2.829c-0.007,1.155-0.245,2.455-1.204,3.099
				c-0.504,0.338-1.129,0.435-1.734,0.487c-1.525,0.132-3.363,0.155-4.816-0.367c0.258-0.621,0.869-1.027,1.13-1.704
				c0.288-0.746,0.352-1.546,0.262-2.336c-0.195-1.714-1.088-3.362-2.322-4.552c-1.078-1.04-4.159-2.507-6.321-1.555
				c-2.149,0.947-1.027,4.038-0.469,5.212c0.821,1.729,2.791,3.461,5.129,4.828c-0.983,0.544-2.309,0.949-3.998,1.206
				c-2.278,0.347-4.092,0.205-4.791,1.714c-0.367,0.793,0.323,2.143-0.464,2.79c-1.472,1.21-3.018-0.081-4.288,0.063
				c-1.716,0.196-2.239,0.5-2.248,1.618c-0.003,0.348,0.529,0.876,0.42,1.183c0.091,0.143,0.182,0.286,0.274,0.428
				c-0.898,0.129-1.66,0.031-2.287-0.294c-0.312-0.075-2-0.732-1.989-0.728c-0.445-0.158-1.019,0.039-1.146,0.302
				c-0.803,1.655-0.189,3.254,0.141,4.875c-2.476-3.407-4.167-6.848-8.859-9.692c-2.543-1.542-7.026-3.472-10.173-1.379
				c-4.781,3.182-3.177,11.812,3.366,13.901c0.274,0.088,0.634-0.088,0.762-0.211c0.181-0.172,0.361-0.344,0.542-0.516
				c0.453-0.431-0.264-0.999-0.87-0.492c-1.224,1.025-4.236-4.344-4.342-4.722c-0.539-1.929-0.708-4.304,0.682-6.139
				c2.939-3.882,9.225,0.367,11.626,2.36c3.576,2.968,4.643,6.431,7.463,9.597c0.453,0.509,1.606,0.469,1.734-0.131
				c0.452-2.116-1.048-4.194-0.544-6.277c1.772,0.829,4.795,2.317,5.93,0.769c0.547-0.746-0.608-1.61-0.251-2.398
				c0.538-1.186,0.366-0.461,2.059-0.215c0.628,0.091,1.238,0.186,1.875,0.06c0.818-0.162,1.194-0.517,1.569-0.948
				c1.418-1.626-0.208-3.33,3.442-4.287c2.03-0.532,3.716-0.336,5.508-1.298c0.168-0.09,0.324-0.186,0.476-0.283
				c0.357,0.171,0.716,0.338,1.079,0.49c3.1,1.291,6.832,1.029,8.423-1.078c1.054-1.396,1.081-2.945,1.067-4.44
				c-0.01-1.017,0.12-2.076-0.01-3.09c-0.069-0.541-0.394-1.215-0.605-1.836c1.725,1.015,3.232,2.367,5.874,1.568
				c3.758-1.137,2.897-4.161,2.111-6.369c2.21,1.18,4.219,2.394,5.807-0.227c0.852-1.405,1.134-2.348,2.962-3.453
				c1.02-0.617,2.097-1.201,2.877-1.934c2.016-1.894,0.827-4.008,2.317-5.906C297.426,332.481,296.282,331.898,295.684,332.504z
				 M262.017,355.752c-1.492-1.24-2.819-3.108-2.499-4.672c0.204-0.999,1.374-2.188,3.293-1.188
				c1.728,0.901,2.672,3.473,2.809,4.728c0.133,1.214-0.221,2.236-1.086,3.053C263.502,357,262.535,356.182,262.017,355.752z"/>
			<path id="XMLID_1849_" style="fill:#455A64;" d="M316.619,347.938c-0.082-0.078-1.797,0.86-1.932,0.925
				c-1.365,0.656-2.489,1.065-4.08,1.03c0.02-0.061,0.053-0.123,0.07-0.183c0.458-1.701-0.844-3.815-2.63-5.182
				c-1.193-0.912-3.041-1.63-4.767-0.594c-1.85,1.11-0.647,3.21,0.465,4.341c1.111,1.128,2.595,1.894,4.207,2.305
				c-0.619,0.547-1.524,1.058-2.729,1.54c-1.631,0.652-2.396,0.637-2.454,2.002c-0.031,0.715,0.284,1.436,0.423,2.143
				c0.272,1.375,0.025,3.039-2.975,2.826c-1.559-0.111-2.521-0.514-3.786-1.04c-0.579-0.24-1.178-0.02-1.236,0.371
				c-0.17,1.15,0.342,2.306,0.285,3.458c-0.157,3.217-4.73,0.027-6.146-0.951c-0.741-0.511-1.591,0.031-1.31,0.554
				c0.945,1.758,0.511,4.014,0.01,5.799c-0.26,0.926-0.643,2.726-2.061,3.348c-1.479,0.648-2.713,0.172-3.696-0.648
				c1.513-2.671,2.127-5.829,1.368-8.565c-0.385-1.389-1.375-3.036-4.178-2.216c-3.359,0.982-2.992,3.698-2.344,5.409
				c0.327,0.863,1.613,3.522,3.487,5.442c-1.915,3.184-5.425,5.843-9.867,8.483c-0.576,0.343-0.091,1.087,0.682,0.66
				c4.607-2.543,7.904-4.782,10.233-8.206c1.656,1.263,3.646,1.766,5.783,0.21c2.505-1.824,3.211-5.363,2.69-8.119
				c1.546,1.084,3.5,2.137,5.381,1.529c2.554-0.825,1.569-3.443,1.315-5.162c1.942,0.729,4.416,1.396,6.452,0.601
				c2.983-1.164,1.043-3.433,1.219-5.044c0.208-1.899,2.685-1.705,4.412-2.906c0.484-0.337,0.879-0.749,1.182-1.183
				c3.045,0.189,6.168-0.787,7.919-2.911c0.115-0.139,0.098-0.375-0.057-0.503c-0.111-0.092-0.222-0.184-0.332-0.276
				C317.052,346.749,316.22,347.558,316.619,347.938z M279.955,367.021c-0.776-1.23-2.892-4.461-1.722-5.972
				c0.131-0.169,0.305-0.3,0.491-0.404c0.605-0.338,1.36-0.397,2.01-0.156c1.065,0.395,1.582,1.371,1.624,2.435
				c0.033,0.829-0.118,1.682-0.197,2.509c-0.116,1.225-0.445,2.366-0.941,3.448C280.669,368.19,280.243,367.478,279.955,367.021z
				 M304.623,347.444c-0.328-0.332-0.629-0.73-0.652-1.194c-0.036-0.716,0.652-1.32,1.365-1.389c1.313-0.128,2.05,0.826,2.747,1.734
				c0.137,0.178,1.403,2.945,0.831,2.888c-1.589-0.158-3.118-0.876-4.253-2C304.649,347.469,304.636,347.457,304.623,347.444z"/>
			<path id="XMLID_1459_" style="fill:#455A64;" d="M276.586,390.126c0.732,2.999,3.236,5.604,5.092,7.963
				c2.022,2.57,4.325,5.009,7.114,6.755c0.793,0.496,1.411-0.285,1.118-0.691c-0.59-0.819-0.783-1.492-1.608-2.236
				c-0.218-0.196-0.729-0.053-0.958,0.152c-1.735-1.698-2.964-3.576-4.451-5.338c-1.741-2.063-4.305-4.738-5.087-7.023
				C277.609,389.132,276.484,389.709,276.586,390.126z"/>
			<path id="XMLID_3396_" style="fill:#455A64;" d="M292.773,386.701c-1.703-0.335-3.652-0.423-5.311-0.089
				c0.597-0.711,1.486-1.071,2.756-0.297c0.589,0.359,1.373-0.463,0.843-0.792c-1.364-0.847-3.046-0.557-4.453,0.173
				c-1.317,0.683-1.769,1.447-1.867,2.273c-0.006,0.03-0.011,0.06-0.011,0.091c-0.06,0.693,0.115,1.43,0.235,2.2
				c0.403,2.57,2.333,4.671,4.432,6.936c1.325,1.43,3.454,3.039,6.667,2.693c6.569-0.707,4.963-6.794,2.87-9.12
				C297.37,389.029,296.159,387.367,292.773,386.701z M298.182,397.349c-4.559,4.251-9.594-2.873-10.761-4.618
				c-0.708-1.058-0.963-2.151-1.004-3.28c-0.008-0.223,0.078-0.798,0.291-1.423C294.562,385.41,302.142,393.656,298.182,397.349z"/>
			<path id="XMLID_1613_" style="fill:#455A64;" d="M300.314,382.416c-0.416-0.113-0.827,0.123-0.92,0.346
				c-0.124,0.297-0.275,0.591-0.387,0.89c-0.063,0.168,0.196,0.287,0.46,0.273c0.328-0.018,0.584-0.182,0.697-0.35
				c0.111-0.166,0.253-0.33,0.38-0.493C300.71,382.87,300.75,382.535,300.314,382.416z"/>
			<path id="XMLID_3427_" style="fill:#455A64;" d="M312.37,375.173c-2.168-1.029-4.827-0.296-6.399,0.86
				c-2.039,1.499-1.433,3.357-0.871,5.096c0.173,0.535,1.351,0.11,1.225-0.298c-0.224-0.725-0.574-1.556-0.573-2.353
				c1.599,1.898,3.016,3.956,4.66,5.927c-0.142,0.18-0.277,0.362-0.433,0.536c-0.362,0.404,0.501,1.158,1.127,0.65
				c0.067-0.054,0.124-0.112,0.186-0.168c1.348,1.5,2.877,2.923,4.787,4.147c0.816,0.58,1.837-0.334,1.062-0.836
				c-1.958-1.268-3.539-2.76-4.945-4.33c0.478-0.678,0.829-1.4,1.277-2.07c0.599-0.895,1.22-1.779,1.452-2.735
				C315.324,377.954,314.682,376.27,312.37,375.173z M312.389,376.535c2.016,1.499,1.148,3.207,0.083,4.803
				c-0.423,0.634-0.819,1.294-1.246,1.944c-1.592-1.91-2.997-3.887-4.547-5.688c-0.177-0.206-0.422-0.233-0.645-0.167
				c0.034-0.059,0.057-0.12,0.099-0.177C307.253,375.72,310.472,375.11,312.389,376.535z"/>
			<path id="XMLID_3397_" style="fill:#455A64;" d="M340.571,368.472c-0.216,0.669-1.396,1.493-2.362,1.865
				c-2.387,0.92-4.571-0.206-6.205-1.286c-1.447-0.957-1.811-2.333-2.965-3.371c-0.729-0.656-2.092-1.653-3.684-1.297
				c-3.676,0.822-2.002,5.15-1.499,7.565c-1.031-0.562-1.928-0.986-3.691-1.063c-0.309-0.013-0.584,0.095-0.714,0.254
				c-0.71,0.865-0.705,1.958-0.35,3.037c-1.448-1.198-2.856-2.413-4.269-3.627c-0.616-0.529-1.621,0.206-1.131,0.634
				c2.431,2.123,4.811,4.26,7.484,6.286c0.695,0.527,1.428,0.056,1.123-0.736c-0.249-0.644-1.151-1.133-1.553-1.701
				c-0.417-0.589-0.602-1.448-0.146-2.008c0.263-0.323,0.691-0.477,1.107-0.488c0.416-0.011,0.825,0.106,1.216,0.246
				c0.563,0.201,2.564,1.703,2.509,0.305c-0.055-1.383-0.197-2.762-0.424-4.127c-0.1-0.6-0.213-1.24,0.028-1.798
				c0.223-0.517,0.742-0.883,1.299-0.967c0.557-0.084,1.139,0.097,1.583,0.445c1.083,0.849,1.665,2.074,2.678,2.965
				c0.701,0.616,1.465,1.227,2.491,1.675c3.928,1.715,8.452-0.33,8.68-2.835C341.823,367.927,340.706,368.057,340.571,368.472z"/>
		</g>
	</g>
</g>
</svg>
