<svg width="28" height="30" viewBox="0 0 28 30" fill="none" xmlns="http://www.w3.org/2000/svg">
<path d="M2.7915 29.1673C2.22484 29.1673 1.729 28.9548 1.304 28.5298C0.879004 28.1048 0.666504 27.609 0.666504 27.0423V2.95898C0.666504 2.39232 0.879004 1.89648 1.304 1.47148C1.729 1.04648 2.22484 0.833984 2.7915 0.833984H14.8332L23.3332 9.33398V14.3631C22.9318 14.434 22.5422 14.5697 22.1644 14.7704C21.7866 14.9711 21.4443 15.225 21.1373 15.5319L12.7082 23.9256V29.1673H2.7915ZM14.8332 29.1673V24.8111L22.6603 17.0194C22.8728 16.8069 23.1089 16.6534 23.3686 16.559C23.6283 16.4645 23.888 16.4173 24.1478 16.4173C24.4311 16.4173 24.7026 16.4704 24.9623 16.5767C25.2221 16.6829 25.4582 16.8423 25.6707 17.0548L26.9811 18.3652C27.1936 18.5777 27.3471 18.8138 27.4415 19.0736C27.5359 19.3333 27.5832 19.593 27.5832 19.8527C27.5832 20.1125 27.53 20.3781 27.4238 20.6496C27.3175 20.9211 27.1582 21.1631 26.9457 21.3756L19.1894 29.1673H14.8332ZM24.1478 21.234L25.4582 19.8527L24.1478 18.5423L22.8019 19.8881L24.1478 21.234ZM13.4165 10.7507H21.2082L13.4165 2.95898V10.7507Z" fill="white"/>
</svg>
