<svg width="16" height="16" viewBox="0 0 16 16" fill="none" xmlns="http://www.w3.org/2000/svg">
<mask id="mask0_586_2791" style="mask-type:alpha" maskUnits="userSpaceOnUse" x="0" y="0" width="16" height="16">
<rect width="16" height="16" fill="#D9D9D9"/>
</mask>
<g mask="url(#mask0_586_2791)">
<path d="M3.33333 14C2.96667 14 2.65278 13.8694 2.39167 13.6083C2.13056 13.3472 2 13.0333 2 12.6667V3.33333C2 2.96667 2.13056 2.65278 2.39167 2.39167C2.65278 2.13056 2.96667 2 3.33333 2H10.6667L14 5.33333V12.6667C14 13.0333 13.8694 13.3472 13.6083 13.6083C13.3472 13.8694 13.0333 14 12.6667 14H3.33333ZM3.33333 12.6667H12.6667V6H10V3.33333H3.33333V12.6667ZM4.66667 11.3333H11.3333V10H4.66667V11.3333ZM4.66667 6H8V4.66667H4.66667V6ZM4.66667 8.66667H11.3333V7.33333H4.66667V8.66667Z" fill="#75D3D4"/>
</g>
</svg>
