<svg width="16" height="16" viewBox="0 0 16 16" fill="none" xmlns="http://www.w3.org/2000/svg">
<mask id="mask0_586_2786" style="mask-type:alpha" maskUnits="userSpaceOnUse" x="0" y="0" width="16" height="16">
<rect width="16" height="16" fill="#D9D9D9"/>
</mask>
<g mask="url(#mask0_586_2786)">
<path d="M8.00033 10.6665C8.83366 10.6665 9.54199 10.3748 10.1253 9.7915C10.7087 9.20817 11.0003 8.49984 11.0003 7.6665C11.0003 6.83317 10.7087 6.12484 10.1253 5.5415C9.54199 4.95817 8.83366 4.6665 8.00033 4.6665C7.16699 4.6665 6.45866 4.95817 5.87533 5.5415C5.29199 6.12484 5.00033 6.83317 5.00033 7.6665C5.00033 8.49984 5.29199 9.20817 5.87533 9.7915C6.45866 10.3748 7.16699 10.6665 8.00033 10.6665ZM8.00033 9.4665C7.50033 9.4665 7.07533 9.2915 6.72533 8.9415C6.37533 8.5915 6.20033 8.1665 6.20033 7.6665C6.20033 7.1665 6.37533 6.7415 6.72533 6.3915C7.07533 6.0415 7.50033 5.8665 8.00033 5.8665C8.50033 5.8665 8.92533 6.0415 9.27533 6.3915C9.62533 6.7415 9.80033 7.1665 9.80033 7.6665C9.80033 8.1665 9.62533 8.5915 9.27533 8.9415C8.92533 9.2915 8.50033 9.4665 8.00033 9.4665ZM8.00033 12.6665C6.3781 12.6665 4.90033 12.2137 3.56699 11.3082C2.23366 10.4026 1.26699 9.18873 0.666992 7.6665C1.26699 6.14428 2.23366 4.93039 3.56699 4.02484C4.90033 3.11928 6.3781 2.6665 8.00033 2.6665C9.62255 2.6665 11.1003 3.11928 12.4337 4.02484C13.767 4.93039 14.7337 6.14428 15.3337 7.6665C14.7337 9.18873 13.767 10.4026 12.4337 11.3082C11.1003 12.2137 9.62255 12.6665 8.00033 12.6665ZM8.00033 11.3332C9.25588 11.3332 10.4087 11.0026 11.4587 10.3415C12.5087 9.68039 13.3114 8.78873 13.867 7.6665C13.3114 6.54428 12.5087 5.65262 11.4587 4.9915C10.4087 4.33039 9.25588 3.99984 8.00033 3.99984C6.74477 3.99984 5.59199 4.33039 4.54199 4.9915C3.49199 5.65262 2.68921 6.54428 2.13366 7.6665C2.68921 8.78873 3.49199 9.68039 4.54199 10.3415C5.59199 11.0026 6.74477 11.3332 8.00033 11.3332Z" fill="#75D3D4"/>
</g>
</svg>
